<?xml version="1.0" encoding="UTF-8"?><svg xmlns="http://www.w3.org/2000/svg" xmlns:xlink="http://www.w3.org/1999/xlink" fill-opacity="1" color-rendering="auto" color-interpolation="auto" stroke="black" text-rendering="auto" stroke-linecap="square" width="498" stroke-miterlimit="10" stroke-opacity="1" shape-rendering="auto" fill="black" stroke-dasharray="none" font-weight="normal" stroke-width="1" height="559" font-family="'Dialog'" font-style="normal" stroke-linejoin="miter" font-size="12" stroke-dashoffset="0" image-rendering="auto">
  <!--Generated by ySVG 2.5-->
  <defs id="genericDefs"/>
  <g>
    <defs id="defs1">
      <clipPath clipPathUnits="userSpaceOnUse" id="clipPath1">
        <path d="M0 0 L498 0 L498 559 L0 559 L0 0 Z"/>
      </clipPath>
      <clipPath clipPathUnits="userSpaceOnUse" id="clipPath2">
        <path d="M371 93 L869 93 L869 652 L371 652 L371 93 Z"/>
      </clipPath>
    </defs>
    <g text-rendering="optimizeQuality" stroke-miterlimit="1.45" shape-rendering="geometricPrecision" transform="matrix(1,0,0,1,-371,-93)" stroke-linecap="butt">
      <path fill="none" d="M447 242 L635.5 242 L635.5 282 L447 282 Z" clip-path="url(#clipPath2)"/>
      <text x="477.5205" xml:space="preserve" y="266.1543" font-family="sans-serif" clip-path="url(#clipPath2)" stroke="none">Enable Radio module</text>
    </g>
    <g text-rendering="optimizeQuality" stroke-miterlimit="1.45" shape-rendering="geometricPrecision" transform="matrix(1,0,0,1,-371,-93)" stroke-linecap="butt">
      <path fill="none" d="M447 350 L635.5 350 L635.5 390 L447 390 Z" clip-path="url(#clipPath2)"/>
      <text x="501.5996" xml:space="preserve" y="374.1543" font-family="sans-serif" clip-path="url(#clipPath2)" stroke="none">Start counter</text>
    </g>
    <g text-rendering="optimizeQuality" stroke-miterlimit="1.45" shape-rendering="geometricPrecision" transform="matrix(1,0,0,1,-371,-93)" stroke-linecap="butt">
      <rect x="458.5" y="108" clip-path="url(#clipPath2)" fill="none" width="165.5" rx="20" ry="20" height="40"/>
      <text x="482.6885" xml:space="preserve" y="132.1543" font-family="sans-serif" clip-path="url(#clipPath2)" stroke="none">Start Radio capture</text>
    </g>
    <g text-rendering="optimizeQuality" stroke-miterlimit="1.45" shape-rendering="geometricPrecision" transform="matrix(1,0,0,1,-371,-93)" stroke-linecap="butt">
      <path fill="none" d="M447 162 L635.5 162 L635.5 228 L447 228 Z" clip-path="url(#clipPath2)"/>
      <text x="472.5693" xml:space="preserve" y="185.1855" font-family="sans-serif" clip-path="url(#clipPath2)" stroke="none">frame received = false</text>
      <text x="483.3652" xml:space="preserve" y="199.1543" font-family="sans-serif" clip-path="url(#clipPath2)" stroke="none">first capture = true</text>
      <text x="489.4033" xml:space="preserve" y="213.123" font-family="sans-serif" clip-path="url(#clipPath2)" stroke="none">data position = 0</text>
    </g>
    <g text-rendering="optimizeQuality" stroke-miterlimit="1.45" shape-rendering="geometricPrecision" transform="matrix(1,0,0,1,-371,-93)" stroke-linecap="butt">
      <path fill="none" d="M447 296 L635.5 296 L635.5 336 L447 336 Z" clip-path="url(#clipPath2)"/>
      <text x="470.4688" xml:space="preserve" y="320.1543" font-family="sans-serif" clip-path="url(#clipPath2)" stroke="none">Enable Radio interrupts</text>
    </g>
    <g text-rendering="optimizeQuality" stroke-miterlimit="1.45" shape-rendering="geometricPrecision" transform="matrix(1,0,0,1,-371,-93)" stroke-linecap="butt">
      <path fill="none" d="M541.25 420 L635.5 443.5 L541.25 467 L447 443.5 Z" clip-path="url(#clipPath2)"/>
      <text x="491.1611" xml:space="preserve" y="447.6543" font-family="sans-serif" clip-path="url(#clipPath2)" stroke="none">Frame received?</text>
    </g>
    <g text-rendering="optimizeQuality" stroke-miterlimit="1.45" shape-rendering="geometricPrecision" transform="matrix(1,0,0,1,-371,-93)" stroke-linecap="butt">
      <path fill="none" d="M541.25 497 L635.5 520.5 L541.25 544 L447 520.5 Z" clip-path="url(#clipPath2)"/>
      <text x="506.5068" xml:space="preserve" y="524.6543" font-family="sans-serif" clip-path="url(#clipPath2)" stroke="none">User abort?</text>
    </g>
    <g text-rendering="optimizeQuality" stroke-miterlimit="1.45" shape-rendering="geometricPrecision" transform="matrix(1,0,0,1,-371,-93)" stroke-linecap="butt">
      <rect x="458.5" y="596.5" clip-path="url(#clipPath2)" fill="none" width="165.5" rx="20" ry="20" height="40"/>
      <text x="485.9434" xml:space="preserve" y="620.6543" font-family="sans-serif" clip-path="url(#clipPath2)" stroke="none">End Radio capture</text>
    </g>
    <g text-rendering="optimizeQuality" stroke-miterlimit="1.45" shape-rendering="geometricPrecision" transform="matrix(1,0,0,1,-371,-93)" stroke-linecap="butt">
      <path fill="none" d="M665.5 500.5 L854 500.5 L854 540.5 L665.5 540.5 Z" clip-path="url(#clipPath2)"/>
      <text x="729.6006" xml:space="preserve" y="524.6543" font-family="sans-serif" clip-path="url(#clipPath2)" stroke="none">Save data</text>
    </g>
    <g text-rendering="optimizeQuality" stroke-miterlimit="1.45" shape-rendering="geometricPrecision" transform="matrix(1,0,0,1,-371,-93)" stroke-linecap="butt">
      <path fill="none" d="M665.5 556.5 L854 556.5 L854 596.5 L665.5 596.5 Z" clip-path="url(#clipPath2)"/>
      <text x="724.043" xml:space="preserve" y="580.6543" font-family="sans-serif" clip-path="url(#clipPath2)" stroke="none">Return data</text>
    </g>
    <g text-rendering="optimizeQuality" stroke-miterlimit="1.45" shape-rendering="geometricPrecision" transform="matrix(1,0,0,1,-371,-93)" stroke-linecap="butt">
      <path fill="none" d="M541.25 147.9888 L541.25 153.9911" clip-path="url(#clipPath2)"/>
    </g>
    <g text-rendering="optimizeQuality" stroke-miterlimit="1.45" shape-rendering="geometricPrecision" transform="matrix(1,0,0,1,-371,-93)" stroke-linecap="butt">
      <path d="M541.25 161.9911 L546.25 149.9911 L541.25 152.9911 L536.25 149.9911 Z" clip-path="url(#clipPath2)" stroke="none"/>
      <path fill="none" d="M541.25 228.0093 L541.25 233.984" clip-path="url(#clipPath2)"/>
      <path d="M541.25 241.984 L546.25 229.984 L541.25 232.984 L536.25 229.984 Z" clip-path="url(#clipPath2)" stroke="none"/>
      <path fill="none" d="M541.25 282.0127 L541.25 287.986" clip-path="url(#clipPath2)"/>
      <path d="M541.25 295.986 L546.25 283.986 L541.25 286.986 L536.25 283.986 Z" clip-path="url(#clipPath2)" stroke="none"/>
      <path fill="none" d="M541.25 336.0127 L541.25 341.986" clip-path="url(#clipPath2)"/>
      <path d="M541.25 349.986 L546.25 337.986 L541.25 340.986 L536.25 337.986 Z" clip-path="url(#clipPath2)" stroke="none"/>
      <path fill="none" d="M541.25 389.9988 L541.25 412.0333" clip-path="url(#clipPath2)"/>
      <path d="M541.25 420.0333 L546.25 408.0333 L541.25 411.0333 L536.25 408.0333 Z" clip-path="url(#clipPath2)" stroke="none"/>
      <path fill="none" d="M541.25 466.9985 L541.25 489.0147" clip-path="url(#clipPath2)"/>
      <path d="M541.25 497.0147 L546.25 485.0147 L541.25 488.0147 L536.25 485.0147 Z" clip-path="url(#clipPath2)" stroke="none"/>
      <text x="503.0908" xml:space="preserve" y="486.1543" font-family="sans-serif" clip-path="url(#clipPath2)" stroke="none">No</text>
      <path fill="none" d="M446.9993 520.5 L427 520.5 L427 443.5 L438.9993 443.5" clip-path="url(#clipPath2)"/>
      <path d="M446.9993 443.5 L434.9993 438.5 L437.9993 443.5 L434.9993 448.5 Z" clip-path="url(#clipPath2)" stroke="none"/>
      <text x="388.8408" xml:space="preserve" y="486.1543" font-family="sans-serif" clip-path="url(#clipPath2)" stroke="none">No</text>
      <path fill="none" d="M541.25 543.9844 L541.25 588.4944" clip-path="url(#clipPath2)"/>
      <path d="M541.25 596.4944 L546.25 584.4944 L541.25 587.4944 L536.25 584.4944 Z" clip-path="url(#clipPath2)" stroke="none"/>
      <text x="500.7676" xml:space="preserve" y="574.4043" font-family="sans-serif" clip-path="url(#clipPath2)" stroke="none">Yes</text>
      <path fill="none" d="M635.4835 443.5 L759.75 443.5 L759.75 492.5356" clip-path="url(#clipPath2)"/>
      <path d="M759.75 500.5356 L764.75 488.5356 L759.75 491.5356 L754.75 488.5356 Z" clip-path="url(#clipPath2)" stroke="none"/>
      <text x="695.8838" xml:space="preserve" y="417.6543" font-family="sans-serif" clip-path="url(#clipPath2)" stroke="none">Yes</text>
      <path fill="none" d="M759.75 540.4883 L759.75 548.4896" clip-path="url(#clipPath2)"/>
      <path d="M759.75 556.4896 L764.75 544.4896 L759.75 547.4896 L754.75 544.4896 Z" clip-path="url(#clipPath2)" stroke="none"/>
      <path fill="none" d="M759.75 596.4609 L759.75 616.5 L632.0143 616.5" clip-path="url(#clipPath2)"/>
      <path d="M624.0143 616.5 L636.0143 621.5 L633.0143 616.5 L636.0143 611.5 Z" clip-path="url(#clipPath2)" stroke="none"/>
    </g>
  </g>
</svg>
