<?xml version="1.0" encoding="UTF-8"?><svg xmlns="http://www.w3.org/2000/svg" xmlns:xlink="http://www.w3.org/1999/xlink" fill-opacity="1" color-rendering="auto" color-interpolation="auto" stroke="black" text-rendering="auto" stroke-linecap="square" width="819" stroke-miterlimit="10" stroke-opacity="1" shape-rendering="auto" fill="black" stroke-dasharray="none" font-weight="normal" stroke-width="1" height="1193" font-family="'Dialog'" font-style="normal" stroke-linejoin="miter" font-size="12" stroke-dashoffset="0" image-rendering="auto">
  <!--Generated by ySVG 2.5-->
  <defs id="genericDefs"/>
  <g>
    <defs id="defs1">
      <clipPath clipPathUnits="userSpaceOnUse" id="clipPath1">
        <path d="M0 0 L819 0 L819 1193 L0 1193 L0 0 Z"/>
      </clipPath>
      <clipPath clipPathUnits="userSpaceOnUse" id="clipPath2">
        <path d="M118 28 L937 28 L937 1221 L118 1221 L118 28 Z"/>
      </clipPath>
    </defs>
    <g text-rendering="optimizeQuality" stroke-miterlimit="1.45" shape-rendering="geometricPrecision" transform="matrix(1,0,0,1,-118,-28)" stroke-linecap="butt">
      <path fill="none" d="M386.25 1011.25 L574.75 1011.25 L574.75 1051.25 L386.25 1051.25 Z" clip-path="url(#clipPath2)"/>
      <text x="438.4766" xml:space="preserve" y="1035.4043" font-family="sans-serif" clip-path="url(#clipPath2)" stroke="none">Reset counter</text>
    </g>
    <g text-rendering="optimizeQuality" stroke-miterlimit="1.45" shape-rendering="geometricPrecision" transform="matrix(1,0,0,1,-118,-28)" stroke-linecap="butt">
      <path fill="none" d="M386.25 113 L574.75 113 L574.75 153 L386.25 153 Z" clip-path="url(#clipPath2)"/>
      <text x="433.042" xml:space="preserve" y="137.1543" font-family="sans-serif" clip-path="url(#clipPath2)" stroke="none">Get timer count</text>
    </g>
    <g text-rendering="optimizeQuality" stroke-miterlimit="1.45" shape-rendering="geometricPrecision" transform="matrix(1,0,0,1,-118,-28)" stroke-linecap="butt">
      <path fill="none" d="M480.5 170.5 L574.75 194 L480.5 217.5 L386.25 194 Z" clip-path="url(#clipPath2)"/>
      <text x="452.6211" xml:space="preserve" y="198.1543" font-family="sans-serif" clip-path="url(#clipPath2)" stroke="none">Timeout?</text>
    </g>
    <g text-rendering="optimizeQuality" stroke-miterlimit="1.45" shape-rendering="geometricPrecision" transform="matrix(1,0,0,1,-118,-28)" stroke-linecap="butt">
      <path fill="none" d="M693.25 235 L787.5 258.5 L693.25 282 L599 258.5 Z" clip-path="url(#clipPath2)"/>
      <text x="638.0225" xml:space="preserve" y="262.6543" font-family="sans-serif" clip-path="url(#clipPath2)" stroke="none">Received data ok?</text>
    </g>
    <g text-rendering="optimizeQuality" stroke-miterlimit="1.45" shape-rendering="geometricPrecision" transform="matrix(1,0,0,1,-118,-28)" stroke-linecap="butt">
      <path fill="none" d="M599 326 L787.5 326 L787.5 366 L599 366 Z" clip-path="url(#clipPath2)"/>
      <text x="641.4033" xml:space="preserve" y="350.1543" font-family="sans-serif" clip-path="url(#clipPath2)" stroke="none">data position = 0</text>
    </g>
    <g text-rendering="optimizeQuality" stroke-miterlimit="1.45" shape-rendering="geometricPrecision" transform="matrix(1,0,0,1,-118,-28)" stroke-linecap="butt">
      <path fill="none" d="M733.25 1111.25 L921.75 1111.25 L921.75 1151.25 L733.25 1151.25 Z" clip-path="url(#clipPath2)"/>
      <text x="791.582" xml:space="preserve" y="1135.4043" font-family="sans-serif" clip-path="url(#clipPath2)" stroke="none">Disable LED</text>
    </g>
    <g text-rendering="optimizeQuality" stroke-miterlimit="1.45" shape-rendering="geometricPrecision" transform="matrix(1,0,0,1,-118,-28)" stroke-linecap="butt">
      <path fill="none" d="M733.25 1057.25 L921.75 1057.25 L921.75 1097.25 L733.25 1097.25 Z" clip-path="url(#clipPath2)"/>
      <text x="763.6533" xml:space="preserve" y="1081.4043" font-family="sans-serif" clip-path="url(#clipPath2)" stroke="none">Disable radio module</text>
    </g>
    <g text-rendering="optimizeQuality" stroke-miterlimit="1.45" shape-rendering="geometricPrecision" transform="matrix(1,0,0,1,-118,-28)" stroke-linecap="butt">
      <rect x="397.75" y="1165.25" clip-path="url(#clipPath2)" fill="none" width="165.5" rx="20" ry="20" height="40"/>
      <text x="460.2148" xml:space="preserve" y="1189.4043" font-family="sans-serif" clip-path="url(#clipPath2)" stroke="none">Return</text>
    </g>
    <g text-rendering="optimizeQuality" stroke-miterlimit="1.45" shape-rendering="geometricPrecision" transform="matrix(1,0,0,1,-118,-28)" stroke-linecap="butt">
      <rect x="397.75" y="43" clip-path="url(#clipPath2)" fill="none" width="165.5" rx="20" ry="20" height="40"/>
      <text x="425.0029" xml:space="preserve" y="67.1543" font-family="sans-serif" clip-path="url(#clipPath2)" stroke="none">Radio RX interrupt</text>
    </g>
    <g text-rendering="optimizeQuality" stroke-miterlimit="1.45" shape-rendering="geometricPrecision" transform="matrix(1,0,0,1,-118,-28)" stroke-linecap="butt">
      <path fill="none" d="M599 380 L787.5 380 L787.5 439.25 L599 439.25 Z" clip-path="url(#clipPath2)"/>
      <text x="633.8564" xml:space="preserve" y="406.7949" font-family="sans-serif" clip-path="url(#clipPath2)" stroke="none">verification count =</text>
      <text x="677.9893" xml:space="preserve" y="420.7637" font-family="sans-serif" clip-path="url(#clipPath2)" stroke="none">0b00</text>
    </g>
    <g text-rendering="optimizeQuality" stroke-miterlimit="1.45" shape-rendering="geometricPrecision" transform="matrix(1,0,0,1,-118,-28)" stroke-linecap="butt">
      <path fill="none" d="M733.25 1165.25 L921.75 1165.25 L921.75 1205.25 L733.25 1205.25 Z" clip-path="url(#clipPath2)"/>
      <text x="760.7793" xml:space="preserve" y="1189.4043" font-family="sans-serif" clip-path="url(#clipPath2)" stroke="none">frame received = true</text>
    </g>
    <g text-rendering="optimizeQuality" stroke-miterlimit="1.45" shape-rendering="geometricPrecision" transform="matrix(1,0,0,1,-118,-28)" stroke-linecap="butt">
      <path fill="none" d="M480.5 235 L574.75 258.5 L480.5 282 L386.25 258.5 Z" clip-path="url(#clipPath2)"/>
      <text x="439.2471" xml:space="preserve" y="262.6543" font-family="sans-serif" clip-path="url(#clipPath2)" stroke="none">First capture?</text>
    </g>
    <g text-rendering="optimizeQuality" stroke-miterlimit="1.45" shape-rendering="geometricPrecision" transform="matrix(1,0,0,1,-118,-28)" stroke-linecap="butt">
      <path fill="none" d="M599 453.25 L787.5 453.25 L787.5 493.25 L599 493.25 Z" clip-path="url(#clipPath2)"/>
      <text x="633.4053" xml:space="preserve" y="477.4043" font-family="sans-serif" clip-path="url(#clipPath2)" stroke="none">first capture = false</text>
    </g>
    <g text-rendering="optimizeQuality" stroke-miterlimit="1.45" shape-rendering="geometricPrecision" transform="matrix(1,0,0,1,-118,-28)" stroke-linecap="butt">
      <path fill="none" d="M480.5 299.5 L574.75 323 L480.5 346.5 L386.25 323 Z" clip-path="url(#clipPath2)"/>
      <text x="443.334" xml:space="preserve" y="327.1543" font-family="sans-serif" clip-path="url(#clipPath2)" stroke="none">Small clock?</text>
    </g>
    <g text-rendering="optimizeQuality" stroke-miterlimit="1.45" shape-rendering="geometricPrecision" transform="matrix(1,0,0,1,-118,-28)" stroke-linecap="butt">
      <path fill="none" d="M480.5 439.25 L574.75 462.75 L480.5 486.25 L386.25 462.75 Z" clip-path="url(#clipPath2)"/>
      <text x="450.4062" xml:space="preserve" y="466.9043" font-family="sans-serif" clip-path="url(#clipPath2)" stroke="none">Big clock?</text>
    </g>
    <g text-rendering="optimizeQuality" stroke-miterlimit="1.45" shape-rendering="geometricPrecision" transform="matrix(1,0,0,1,-118,-28)" stroke-linecap="butt">
      <path fill="none" d="M173.5 357.875 L362 357.875 L362 417.125 L173.5 417.125 Z" clip-path="url(#clipPath2)"/>
      <text x="203.3291" xml:space="preserve" y="384.6699" font-family="sans-serif" clip-path="url(#clipPath2)" stroke="none">verification count ^=</text>
      <text x="252.4893" xml:space="preserve" y="398.6387" font-family="sans-serif" clip-path="url(#clipPath2)" stroke="none">0b01</text>
    </g>
    <g text-rendering="optimizeQuality" stroke-miterlimit="1.45" shape-rendering="geometricPrecision" transform="matrix(1,0,0,1,-118,-28)" stroke-linecap="butt">
      <path fill="none" d="M173.5 433.125 L362 433.125 L362 492.375 L173.5 492.375 Z" clip-path="url(#clipPath2)"/>
      <text x="203.3291" xml:space="preserve" y="459.9199" font-family="sans-serif" clip-path="url(#clipPath2)" stroke="none">verification count ^=</text>
      <text x="252.4893" xml:space="preserve" y="473.8887" font-family="sans-serif" clip-path="url(#clipPath2)" stroke="none">0b10</text>
    </g>
    <g text-rendering="optimizeQuality" stroke-miterlimit="1.45" shape-rendering="geometricPrecision" transform="matrix(1,0,0,1,-118,-28)" stroke-linecap="butt">
      <path fill="none" d="M480.5 507.25 L574.75 553.75 L480.5 600.25 L386.25 553.75 Z" clip-path="url(#clipPath2)"/>
      <text x="428.041" xml:space="preserve" y="550.9199" font-family="sans-serif" clip-path="url(#clipPath2)" stroke="none">verification count</text>
      <text x="450.0928" xml:space="preserve" y="564.8887" font-family="sans-serif" clip-path="url(#clipPath2)" stroke="none">== 0b11?</text>
    </g>
    <g text-rendering="optimizeQuality" stroke-miterlimit="1.45" shape-rendering="geometricPrecision" transform="matrix(1,0,0,1,-118,-28)" stroke-linecap="butt">
      <path fill="none" d="M480.5 621.25 L574.75 667.75 L480.5 714.25 L386.25 667.75 Z" clip-path="url(#clipPath2)"/>
      <text x="428.041" xml:space="preserve" y="664.9199" font-family="sans-serif" clip-path="url(#clipPath2)" stroke="none">verification count</text>
      <text x="450.0928" xml:space="preserve" y="678.8887" font-family="sans-serif" clip-path="url(#clipPath2)" stroke="none">== 0b00?</text>
    </g>
    <g text-rendering="optimizeQuality" stroke-miterlimit="1.45" shape-rendering="geometricPrecision" transform="matrix(1,0,0,1,-118,-28)" stroke-linecap="butt">
      <path fill="none" d="M480.5 735.25 L574.75 781.75 L480.5 828.25 L386.25 781.75 Z" clip-path="url(#clipPath2)"/>
      <text x="439.4053" xml:space="preserve" y="778.9199" font-family="sans-serif" clip-path="url(#clipPath2)" stroke="none">data position </text>
      <text x="418.6631" xml:space="preserve" y="792.8887" font-family="sans-serif" clip-path="url(#clipPath2)" stroke="none">&gt;= max transitions?</text>
    </g>
    <g text-rendering="optimizeQuality" stroke-miterlimit="1.45" shape-rendering="geometricPrecision" transform="matrix(1,0,0,1,-118,-28)" stroke-linecap="butt">
      <path fill="none" d="M173.5 638.125 L362 638.125 L362 697.375 L173.5 697.375 Z" clip-path="url(#clipPath2)"/>
      <text x="208.3564" xml:space="preserve" y="664.9199" font-family="sans-serif" clip-path="url(#clipPath2)" stroke="none">verification count =</text>
      <text x="252.4893" xml:space="preserve" y="678.8887" font-family="sans-serif" clip-path="url(#clipPath2)" stroke="none">0b00</text>
    </g>
    <g text-rendering="optimizeQuality" stroke-miterlimit="1.45" shape-rendering="geometricPrecision" transform="matrix(1,0,0,1,-118,-28)" stroke-linecap="butt">
      <path fill="none" d="M604.75 849.25 L793.25 849.25 L793.25 889.25 L604.75 889.25 Z" clip-path="url(#clipPath2)"/>
      <text x="641.1152" xml:space="preserve" y="873.4043" font-family="sans-serif" clip-path="url(#clipPath2)" stroke="none">first capture = true</text>
    </g>
    <g text-rendering="optimizeQuality" stroke-miterlimit="1.45" shape-rendering="geometricPrecision" transform="matrix(1,0,0,1,-118,-28)" stroke-linecap="butt">
      <path fill="none" d="M386.25 848 L574.75 848 L574.75 888 L386.25 888 Z" clip-path="url(#clipPath2)"/>
      <text x="429.0078" xml:space="preserve" y="872.1543" font-family="sans-serif" clip-path="url(#clipPath2)" stroke="none">Save timer count</text>
    </g>
    <g text-rendering="optimizeQuality" stroke-miterlimit="1.45" shape-rendering="geometricPrecision" transform="matrix(1,0,0,1,-118,-28)" stroke-linecap="butt">
      <path fill="none" d="M386.25 903.25 L574.75 903.25 L574.75 943.25 L386.25 943.25 Z" clip-path="url(#clipPath2)"/>
      <text x="428.6533" xml:space="preserve" y="927.4043" font-family="sans-serif" clip-path="url(#clipPath2)" stroke="none">data position + 1</text>
    </g>
    <g text-rendering="optimizeQuality" stroke-miterlimit="1.45" shape-rendering="geometricPrecision" transform="matrix(1,0,0,1,-118,-28)" stroke-linecap="butt">
      <path fill="none" d="M386.25 957.25 L574.75 957.25 L574.75 997.25 L386.25 997.25 Z" clip-path="url(#clipPath2)"/>
      <text x="446.5273" xml:space="preserve" y="981.4043" font-family="sans-serif" clip-path="url(#clipPath2)" stroke="none">Toggle LED</text>
    </g>
    <g text-rendering="optimizeQuality" stroke-miterlimit="1.45" shape-rendering="geometricPrecision" transform="matrix(1,0,0,1,-118,-28)" stroke-linecap="butt">
      <path fill="none" d="M604.75 903.25 L793.25 903.25 L793.25 943.25 L604.75 943.25 Z" clip-path="url(#clipPath2)"/>
      <text x="663.082" xml:space="preserve" y="927.4043" font-family="sans-serif" clip-path="url(#clipPath2)" stroke="none">Disable LED</text>
    </g>
    <g text-rendering="optimizeQuality" stroke-miterlimit="1.45" shape-rendering="geometricPrecision" transform="matrix(1,0,0,1,-118,-28)" stroke-linecap="butt">
      <path fill="none" d="M480.5 152.9858 L480.5 162.489" clip-path="url(#clipPath2)"/>
    </g>
    <g text-rendering="optimizeQuality" stroke-miterlimit="1.45" shape-rendering="geometricPrecision" transform="matrix(1,0,0,1,-118,-28)" stroke-linecap="butt">
      <path d="M480.5 170.489 L485.5 158.489 L480.5 161.489 L475.5 158.489 Z" clip-path="url(#clipPath2)" stroke="none"/>
      <path fill="none" d="M574.7468 194 L693.25 194 L693.25 226.9739" clip-path="url(#clipPath2)"/>
      <path d="M693.25 234.9739 L698.25 222.9739 L693.25 225.9739 L688.25 222.9739 Z" clip-path="url(#clipPath2)" stroke="none"/>
      <text x="632.2588" xml:space="preserve" y="168.1543" font-family="sans-serif" clip-path="url(#clipPath2)" stroke="none">Yes</text>
      <path fill="none" d="M693.25 282.0413 L693.25 317.9817" clip-path="url(#clipPath2)"/>
      <path d="M693.25 325.9817 L698.25 313.9817 L693.25 316.9817 L688.25 313.9817 Z" clip-path="url(#clipPath2)" stroke="none"/>
      <text x="655.0908" xml:space="preserve" y="308.1543" font-family="sans-serif" clip-path="url(#clipPath2)" stroke="none">No</text>
      <path fill="none" d="M787.4807 258.5 L827.5 258.5 L827.5 1049.2111" clip-path="url(#clipPath2)"/>
      <path d="M827.5 1057.2111 L832.5 1045.2111 L827.5 1048.2111 L822.5 1045.2111 Z" clip-path="url(#clipPath2)" stroke="none"/>
      <text x="817.0176" xml:space="preserve" y="232.6543" font-family="sans-serif" clip-path="url(#clipPath2)" stroke="none">Yes</text>
      <path fill="none" d="M827.5 1097.2627 L827.5 1103.236" clip-path="url(#clipPath2)"/>
      <path d="M827.5 1111.236 L832.5 1099.236 L827.5 1102.236 L822.5 1099.236 Z" clip-path="url(#clipPath2)" stroke="none"/>
      <path fill="none" d="M480.5 1051.2178 L480.5 1112.875 L480.5 1112.875 L480.5 1157.2832" clip-path="url(#clipPath2)"/>
      <path d="M480.5 1165.2832 L485.5 1153.2832 L480.5 1156.2832 L475.5 1153.2832 Z" clip-path="url(#clipPath2)" stroke="none"/>
      <path fill="none" d="M480.5 82.9951 L480.5 105.0273" clip-path="url(#clipPath2)"/>
      <path d="M480.5 113.0273 L485.5 101.0273 L480.5 104.0273 L475.5 101.0273 Z" clip-path="url(#clipPath2)" stroke="none"/>
      <path fill="none" d="M693.25 365.976 L693.25 372" clip-path="url(#clipPath2)"/>
      <path d="M693.25 380 L698.25 368 L693.25 371 L688.25 368 Z" clip-path="url(#clipPath2)" stroke="none"/>
      <path fill="none" d="M827.5 1151.2109 L827.5 1157.2617" clip-path="url(#clipPath2)"/>
      <path d="M827.5 1165.2617 L832.5 1153.2617 L827.5 1156.2617 L822.5 1153.2617 Z" clip-path="url(#clipPath2)" stroke="none"/>
      <path fill="none" d="M733.2607 1185.25 L571.2452 1185.25" clip-path="url(#clipPath2)"/>
      <path d="M563.2452 1185.25 L575.2452 1190.25 L572.2452 1185.25 L575.2452 1180.25 Z" clip-path="url(#clipPath2)" stroke="none"/>
      <path fill="none" d="M480.5 217.5261 L480.5 227.012" clip-path="url(#clipPath2)"/>
      <path d="M480.5 235.012 L485.5 223.012 L480.5 226.012 L475.5 223.012 Z" clip-path="url(#clipPath2)" stroke="none"/>
      <text x="442.3408" xml:space="preserve" y="230.9043" font-family="sans-serif" clip-path="url(#clipPath2)" stroke="none">No</text>
      <path fill="none" d="M386.2526 258.5 L133.5 258.5 L133.5 1031.25 L378.2646 1031.25" clip-path="url(#clipPath2)"/>
      <path d="M386.2646 1031.25 L374.2646 1026.25 L377.2646 1031.25 L374.2646 1036.25 Z" clip-path="url(#clipPath2)" stroke="none"/>
      <text x="240.6514" xml:space="preserve" y="232.6543" font-family="sans-serif" clip-path="url(#clipPath2)" stroke="none">Yes</text>
      <path fill="none" d="M693.25 439.2318 L693.25 445.2178" clip-path="url(#clipPath2)"/>
      <path d="M693.25 453.2178 L698.25 441.2178 L693.25 444.2178 L688.25 441.2178 Z" clip-path="url(#clipPath2)" stroke="none"/>
      <path fill="none" d="M693.25 493.2109 L693.25 513.25 L807.5 513.25 L807.5 1037.25 L582.744 1037.25" clip-path="url(#clipPath2)"/>
      <path d="M574.744 1037.25 L586.744 1042.25 L583.744 1037.25 L586.744 1032.25 Z" clip-path="url(#clipPath2)" stroke="none"/>
      <path fill="none" d="M480.5 282.0261 L480.5 291.5121" clip-path="url(#clipPath2)"/>
      <path d="M480.5 299.5121 L485.5 287.5121 L480.5 290.5121 L475.5 287.5121 Z" clip-path="url(#clipPath2)" stroke="none"/>
      <text x="442.3408" xml:space="preserve" y="295.4043" font-family="sans-serif" clip-path="url(#clipPath2)" stroke="none">No</text>
      <path fill="none" d="M480.5 346.5078 L480.5 431.2234" clip-path="url(#clipPath2)"/>
      <path d="M480.5 439.2234 L485.5 427.2234 L480.5 430.2234 L475.5 427.2234 Z" clip-path="url(#clipPath2)" stroke="none"/>
      <text x="442.3408" xml:space="preserve" y="397.0293" font-family="sans-serif" clip-path="url(#clipPath2)" stroke="none">No</text>
      <path fill="none" d="M386.2532 323 L267.75 323 L267.75 349.864" clip-path="url(#clipPath2)"/>
      <path d="M267.75 357.864 L272.75 345.864 L267.75 348.864 L262.75 345.864 Z" clip-path="url(#clipPath2)" stroke="none"/>
      <text x="307.7764" xml:space="preserve" y="297.1543" font-family="sans-serif" clip-path="url(#clipPath2)" stroke="none">Yes</text>
      <path fill="none" d="M386.2532 462.75 L369.9797 462.75" clip-path="url(#clipPath2)"/>
      <path d="M361.9797 462.75 L373.9797 467.75 L370.9797 462.75 L373.9797 457.75 Z" clip-path="url(#clipPath2)" stroke="none"/>
      <text x="378.6426" xml:space="preserve" y="440.9043" font-family="sans-serif" clip-path="url(#clipPath2)" stroke="none">Yes</text>
      <path fill="none" d="M480.5 486.2554 L480.5 499.2486" clip-path="url(#clipPath2)"/>
      <path d="M480.5 507.2486 L485.5 495.2486 L480.5 498.2486 L475.5 495.2486 Z" clip-path="url(#clipPath2)" stroke="none"/>
      <text x="502.3408" xml:space="preserve" y="501.9043" font-family="sans-serif" clip-path="url(#clipPath2)" stroke="none">No</text>
      <path fill="none" d="M267.75 492.3713 L267.75 501 L447 501 L447 515.7948" clip-path="url(#clipPath2)"/>
      <path d="M447 523.7948 L452 511.7948 L447 514.7948 L442 511.7948 Z" clip-path="url(#clipPath2)" stroke="none"/>
      <path fill="none" d="M173.4993 387.5 L153.5 387.5 L153.5 521 L427 521 L427 525.6299" clip-path="url(#clipPath2)"/>
      <path d="M427 533.6299 L432 521.6299 L427 524.6299 L422 521.6299 Z" clip-path="url(#clipPath2)" stroke="none"/>
      <path fill="none" d="M480.5 600.2573 L480.5 613.2499" clip-path="url(#clipPath2)"/>
      <path d="M480.5 621.2499 L485.5 609.2499 L480.5 612.2499 L475.5 609.2499 Z" clip-path="url(#clipPath2)" stroke="none"/>
      <text x="442.3408" xml:space="preserve" y="615.4043" font-family="sans-serif" clip-path="url(#clipPath2)" stroke="none">No</text>
      <path fill="none" d="M480.5 714.2573 L480.5 727.2499" clip-path="url(#clipPath2)"/>
      <path d="M480.5 735.2499 L485.5 723.2499 L480.5 726.2499 L475.5 723.2499 Z" clip-path="url(#clipPath2)" stroke="none"/>
      <text x="442.3408" xml:space="preserve" y="729.4043" font-family="sans-serif" clip-path="url(#clipPath2)" stroke="none">No</text>
      <path fill="none" d="M386.2532 553.75 L267.75 553.75 L267.75 630.1089" clip-path="url(#clipPath2)"/>
      <path d="M267.75 638.1089 L272.75 626.1089 L267.75 629.1089 L262.75 626.1089 Z" clip-path="url(#clipPath2)" stroke="none"/>
      <text x="307.7764" xml:space="preserve" y="587.9043" font-family="sans-serif" clip-path="url(#clipPath2)" stroke="none">Yes</text>
      <path fill="none" d="M267.75 697.3958 L267.75 734.25 L428 734.25 L428 753.1614" clip-path="url(#clipPath2)"/>
      <path d="M428 761.1614 L433 749.1614 L428 752.1614 L423 749.1614 Z" clip-path="url(#clipPath2)" stroke="none"/>
      <path fill="none" d="M574.7244 667.75 L706 667.75 L706 841.2279" clip-path="url(#clipPath2)"/>
      <path d="M706 849.2279 L711 837.2279 L706 840.2279 L701 837.2279 Z" clip-path="url(#clipPath2)" stroke="none"/>
      <text x="638.6338" xml:space="preserve" y="641.9043" font-family="sans-serif" clip-path="url(#clipPath2)" stroke="none">Yes</text>
      <path fill="none" d="M574.746 781.75 L686 781.75 L686 841.2314" clip-path="url(#clipPath2)"/>
      <path d="M686 849.2314 L691 837.2314 L686 840.2314 L681 837.2314 Z" clip-path="url(#clipPath2)" stroke="none"/>
      <text x="628.6338" xml:space="preserve" y="755.9043" font-family="sans-serif" clip-path="url(#clipPath2)" stroke="none">Yes</text>
      <path fill="none" d="M480.5 828.2863 L480.5 840.0268" clip-path="url(#clipPath2)"/>
      <path d="M480.5 848.0268 L485.5 836.0268 L480.5 839.0268 L475.5 836.0268 Z" clip-path="url(#clipPath2)" stroke="none"/>
      <text x="442.3408" xml:space="preserve" y="842.2793" font-family="sans-serif" clip-path="url(#clipPath2)" stroke="none">No</text>
      <path fill="none" d="M480.5 888.0205 L480.5 895.2797" clip-path="url(#clipPath2)"/>
      <path d="M480.5 903.2797 L485.5 891.2797 L480.5 894.2797 L475.5 891.2797 Z" clip-path="url(#clipPath2)" stroke="none"/>
      <path fill="none" d="M480.5 943.2627 L480.5 950.25 L480.5 950.25 L480.5 957.2373" clip-path="url(#clipPath2)"/>
      <path d="M480.5 957.2373 L485.5 945.2373 L480.5 948.2373 L475.5 945.2373 Z" clip-path="url(#clipPath2)" stroke="none"/>
      <path fill="none" d="M480.5 997.2579 L480.5 1003.2335" clip-path="url(#clipPath2)"/>
      <path d="M480.5 1011.2335 L485.5 999.2335 L480.5 1002.2335 L475.5 999.2335 Z" clip-path="url(#clipPath2)" stroke="none"/>
      <path fill="none" d="M699 889.2627 L699 895.236" clip-path="url(#clipPath2)"/>
      <path d="M699 903.236 L704 891.236 L699 894.236 L694 891.236 Z" clip-path="url(#clipPath2)" stroke="none"/>
      <path fill="none" d="M699 943.2158 L699 1017.25 L582.7355 1017.25" clip-path="url(#clipPath2)"/>
      <path d="M574.7355 1017.25 L586.7355 1022.25 L583.7355 1017.25 L586.7355 1012.25 Z" clip-path="url(#clipPath2)" stroke="none"/>
    </g>
  </g>
</svg>
