<?xml version="1.0" encoding="UTF-8"?><svg xmlns="http://www.w3.org/2000/svg" xmlns:xlink="http://www.w3.org/1999/xlink" fill-opacity="1" color-rendering="auto" color-interpolation="auto" stroke="black" text-rendering="auto" stroke-linecap="square" width="774" stroke-miterlimit="10" stroke-opacity="1" shape-rendering="auto" fill="black" stroke-dasharray="none" font-weight="normal" stroke-width="1" height="681" font-family="'Dialog'" font-style="normal" stroke-linejoin="miter" font-size="12" stroke-dashoffset="0" image-rendering="auto">
  <!--Generated by ySVG 2.5-->
  <defs id="genericDefs"/>
  <g>
    <defs id="defs1">
      <clipPath clipPathUnits="userSpaceOnUse" id="clipPath1">
        <path d="M0 0 L774 0 L774 681 L0 681 L0 0 Z"/>
      </clipPath>
      <clipPath clipPathUnits="userSpaceOnUse" id="clipPath2">
        <path d="M113 326 L887 326 L887 1007 L113 1007 L113 326 Z"/>
      </clipPath>
    </defs>
    <g text-rendering="optimizeQuality" stroke-miterlimit="1.45" shape-rendering="geometricPrecision" transform="matrix(1,0,0,1,-113,-326)" stroke-linecap="butt">
      <path fill="none" d="M361 812.75 L549.5 812.75 L549.5 852.75 L361 852.75 Z" clip-path="url(#clipPath2)"/>
      <text x="413.2266" xml:space="preserve" y="836.9043" font-family="sans-serif" clip-path="url(#clipPath2)" stroke="none">Reset counter</text>
    </g>
    <g text-rendering="optimizeQuality" stroke-miterlimit="1.45" shape-rendering="geometricPrecision" transform="matrix(1,0,0,1,-113,-326)" stroke-linecap="butt">
      <path fill="none" d="M361 411 L549.5 411 L549.5 451 L361 451 Z" clip-path="url(#clipPath2)"/>
      <text x="407.792" xml:space="preserve" y="435.1543" font-family="sans-serif" clip-path="url(#clipPath2)" stroke="none">Get timer count</text>
    </g>
    <g text-rendering="optimizeQuality" stroke-miterlimit="1.45" shape-rendering="geometricPrecision" transform="matrix(1,0,0,1,-113,-326)" stroke-linecap="butt">
      <path fill="none" d="M455.25 468.5 L549.5 492 L455.25 515.5 L361 492 Z" clip-path="url(#clipPath2)"/>
      <text x="427.3711" xml:space="preserve" y="496.1543" font-family="sans-serif" clip-path="url(#clipPath2)" stroke="none">Timeout?</text>
    </g>
    <g text-rendering="optimizeQuality" stroke-miterlimit="1.45" shape-rendering="geometricPrecision" transform="matrix(1,0,0,1,-113,-326)" stroke-linecap="butt">
      <path fill="none" d="M668 533 L762.25 556.5 L668 580 L573.75 556.5 Z" clip-path="url(#clipPath2)"/>
      <text x="612.7725" xml:space="preserve" y="560.6543" font-family="sans-serif" clip-path="url(#clipPath2)" stroke="none">Received data ok?</text>
    </g>
    <g text-rendering="optimizeQuality" stroke-miterlimit="1.45" shape-rendering="geometricPrecision" transform="matrix(1,0,0,1,-113,-326)" stroke-linecap="butt">
      <path fill="none" d="M361 704.5 L549.5 704.5 L549.5 744.5 L361 744.5 Z" clip-path="url(#clipPath2)"/>
      <text x="403.7578" xml:space="preserve" y="728.6543" font-family="sans-serif" clip-path="url(#clipPath2)" stroke="none">Save timer count</text>
    </g>
    <g text-rendering="optimizeQuality" stroke-miterlimit="1.45" shape-rendering="geometricPrecision" transform="matrix(1,0,0,1,-113,-326)" stroke-linecap="butt">
      <path fill="none" d="M573.75 624 L762.25 624 L762.25 664 L573.75 664 Z" clip-path="url(#clipPath2)"/>
      <text x="616.1533" xml:space="preserve" y="648.1543" font-family="sans-serif" clip-path="url(#clipPath2)" stroke="none">data position = 0</text>
    </g>
    <g text-rendering="optimizeQuality" stroke-miterlimit="1.45" shape-rendering="geometricPrecision" transform="matrix(1,0,0,1,-113,-326)" stroke-linecap="butt">
      <path fill="none" d="M683 898 L871.5 898 L871.5 938 L683 938 Z" clip-path="url(#clipPath2)"/>
      <text x="741.332" xml:space="preserve" y="922.1543" font-family="sans-serif" clip-path="url(#clipPath2)" stroke="none">Disable LED</text>
    </g>
    <g text-rendering="optimizeQuality" stroke-miterlimit="1.45" shape-rendering="geometricPrecision" transform="matrix(1,0,0,1,-113,-326)" stroke-linecap="butt">
      <path fill="none" d="M683 844 L871.5 844 L871.5 884 L683 884 Z" clip-path="url(#clipPath2)"/>
      <text x="722.2305" xml:space="preserve" y="868.1543" font-family="sans-serif" clip-path="url(#clipPath2)" stroke="none">Disable IR sensors</text>
    </g>
    <g text-rendering="optimizeQuality" stroke-miterlimit="1.45" shape-rendering="geometricPrecision" transform="matrix(1,0,0,1,-113,-326)" stroke-linecap="butt">
      <path fill="none" d="M455.25 597.5 L549.5 644 L455.25 690.5 L361 644 Z" clip-path="url(#clipPath2)"/>
      <text x="414.1553" xml:space="preserve" y="641.1699" font-family="sans-serif" clip-path="url(#clipPath2)" stroke="none">data position </text>
      <text x="393.4131" xml:space="preserve" y="655.1387" font-family="sans-serif" clip-path="url(#clipPath2)" stroke="none">&gt;= max transitions?</text>
    </g>
    <g text-rendering="optimizeQuality" stroke-miterlimit="1.45" shape-rendering="geometricPrecision" transform="matrix(1,0,0,1,-113,-326)" stroke-linecap="butt">
      <path fill="none" d="M148.25 704.5 L336.75 704.5 L336.75 744.5 L148.25 744.5 Z" clip-path="url(#clipPath2)"/>
      <text x="184.6152" xml:space="preserve" y="728.6543" font-family="sans-serif" clip-path="url(#clipPath2)" stroke="none">first capture = true</text>
    </g>
    <g text-rendering="optimizeQuality" stroke-miterlimit="1.45" shape-rendering="geometricPrecision" transform="matrix(1,0,0,1,-113,-326)" stroke-linecap="butt">
      <path fill="none" d="M361 758.75 L549.5 758.75 L549.5 798.75 L361 798.75 Z" clip-path="url(#clipPath2)"/>
      <text x="403.4033" xml:space="preserve" y="782.9043" font-family="sans-serif" clip-path="url(#clipPath2)" stroke="none">data position + 1</text>
    </g>
    <g text-rendering="optimizeQuality" stroke-miterlimit="1.45" shape-rendering="geometricPrecision" transform="matrix(1,0,0,1,-113,-326)" stroke-linecap="butt">
      <rect x="372.5" y="952" clip-path="url(#clipPath2)" fill="none" width="165.5" rx="20" ry="20" height="40"/>
      <text x="434.9648" xml:space="preserve" y="976.1543" font-family="sans-serif" clip-path="url(#clipPath2)" stroke="none">Return</text>
    </g>
    <g text-rendering="optimizeQuality" stroke-miterlimit="1.45" shape-rendering="geometricPrecision" transform="matrix(1,0,0,1,-113,-326)" stroke-linecap="butt">
      <rect x="372.5" y="341" clip-path="url(#clipPath2)" fill="none" width="165.5" rx="20" ry="20" height="40"/>
      <text x="410.8066" xml:space="preserve" y="365.1543" font-family="sans-serif" clip-path="url(#clipPath2)" stroke="none">IR RX interrupt</text>
    </g>
    <g text-rendering="optimizeQuality" stroke-miterlimit="1.45" shape-rendering="geometricPrecision" transform="matrix(1,0,0,1,-113,-326)" stroke-linecap="butt">
      <path fill="none" d="M573.75 678 L762.25 678 L762.25 737.25 L573.75 737.25 Z" clip-path="url(#clipPath2)"/>
      <text x="612.7695" xml:space="preserve" y="704.7949" font-family="sans-serif" clip-path="url(#clipPath2)" stroke="none">frequency capture</text>
      <text x="638.4131" xml:space="preserve" y="718.7637" font-family="sans-serif" clip-path="url(#clipPath2)" stroke="none">count = 0</text>
    </g>
    <g text-rendering="optimizeQuality" stroke-miterlimit="1.45" shape-rendering="geometricPrecision" transform="matrix(1,0,0,1,-113,-326)" stroke-linecap="butt">
      <path fill="none" d="M361 866.75 L549.5 866.75 L549.5 906.75 L361 906.75 Z" clip-path="url(#clipPath2)"/>
      <text x="421.2773" xml:space="preserve" y="890.9043" font-family="sans-serif" clip-path="url(#clipPath2)" stroke="none">Toggle LED</text>
    </g>
    <g text-rendering="optimizeQuality" stroke-miterlimit="1.45" shape-rendering="geometricPrecision" transform="matrix(1,0,0,1,-113,-326)" stroke-linecap="butt">
      <path fill="none" d="M683 952 L871.5 952 L871.5 992 L683 992 Z" clip-path="url(#clipPath2)"/>
      <text x="710.5293" xml:space="preserve" y="976.1543" font-family="sans-serif" clip-path="url(#clipPath2)" stroke="none">frame received = true</text>
    </g>
    <g text-rendering="optimizeQuality" stroke-miterlimit="1.45" shape-rendering="geometricPrecision" transform="matrix(1,0,0,1,-113,-326)" stroke-linecap="butt">
      <path fill="none" d="M455.25 533 L549.5 556.5 L455.25 580 L361 556.5 Z" clip-path="url(#clipPath2)"/>
      <text x="413.9971" xml:space="preserve" y="560.6543" font-family="sans-serif" clip-path="url(#clipPath2)" stroke="none">First capture?</text>
    </g>
    <g text-rendering="optimizeQuality" stroke-miterlimit="1.45" shape-rendering="geometricPrecision" transform="matrix(1,0,0,1,-113,-326)" stroke-linecap="butt">
      <path fill="none" d="M573.75 751.25 L762.25 751.25 L762.25 791.25 L573.75 791.25 Z" clip-path="url(#clipPath2)"/>
      <text x="608.1553" xml:space="preserve" y="775.4043" font-family="sans-serif" clip-path="url(#clipPath2)" stroke="none">first capture = false</text>
    </g>
    <g text-rendering="optimizeQuality" stroke-miterlimit="1.45" shape-rendering="geometricPrecision" transform="matrix(1,0,0,1,-113,-326)" stroke-linecap="butt">
      <path fill="none" d="M455.25 450.9858 L455.25 460.489" clip-path="url(#clipPath2)"/>
    </g>
    <g text-rendering="optimizeQuality" stroke-miterlimit="1.45" shape-rendering="geometricPrecision" transform="matrix(1,0,0,1,-113,-326)" stroke-linecap="butt">
      <path d="M455.25 468.489 L460.25 456.489 L455.25 459.489 L450.25 456.489 Z" clip-path="url(#clipPath2)" stroke="none"/>
      <path fill="none" d="M549.4968 492 L668 492 L668 524.9739" clip-path="url(#clipPath2)"/>
      <path d="M668 532.9739 L673 520.9739 L668 523.9739 L663 520.9739 Z" clip-path="url(#clipPath2)" stroke="none"/>
      <text x="607.0088" xml:space="preserve" y="466.1543" font-family="sans-serif" clip-path="url(#clipPath2)" stroke="none">Yes</text>
      <path fill="none" d="M668 580.0413 L668 615.9817" clip-path="url(#clipPath2)"/>
      <path d="M668 623.9817 L673 611.9817 L668 614.9817 L663 611.9817 Z" clip-path="url(#clipPath2)" stroke="none"/>
      <text x="629.8408" xml:space="preserve" y="606.1543" font-family="sans-serif" clip-path="url(#clipPath2)" stroke="none">No</text>
      <path fill="none" d="M762.2335 556.5 L777.25 556.5 L777.25 835.993" clip-path="url(#clipPath2)"/>
      <path d="M777.25 843.993 L782.25 831.993 L777.25 834.993 L772.25 831.993 Z" clip-path="url(#clipPath2)" stroke="none"/>
      <text x="766.7676" xml:space="preserve" y="530.6543" font-family="sans-serif" clip-path="url(#clipPath2)" stroke="none">Yes</text>
      <path fill="none" d="M777.25 884.0127 L777.25 889.986" clip-path="url(#clipPath2)"/>
      <path d="M777.25 897.986 L782.25 885.986 L777.25 888.986 L772.25 885.986 Z" clip-path="url(#clipPath2)" stroke="none"/>
      <path fill="none" d="M455.25 690.4998 L455.25 696.4784" clip-path="url(#clipPath2)"/>
      <path d="M455.25 704.4784 L460.25 692.4784 L455.25 695.4784 L450.25 692.4784 Z" clip-path="url(#clipPath2)" stroke="none"/>
      <text x="417.0908" xml:space="preserve" y="702.1543" font-family="sans-serif" clip-path="url(#clipPath2)" stroke="none">No</text>
      <path fill="none" d="M361.0032 644 L242.5 644 L242.5 696.4929" clip-path="url(#clipPath2)"/>
      <path d="M242.5 704.4929 L247.5 692.4929 L242.5 695.4929 L237.5 692.4929 Z" clip-path="url(#clipPath2)" stroke="none"/>
      <text x="282.5264" xml:space="preserve" y="618.1543" font-family="sans-serif" clip-path="url(#clipPath2)" stroke="none">Yes</text>
      <path fill="none" d="M242.5 744.5206 L242.5 824.75 L353.0032 824.75" clip-path="url(#clipPath2)"/>
      <path d="M361.0032 824.75 L349.0032 819.75 L352.0032 824.75 L349.0032 829.75 Z" clip-path="url(#clipPath2)" stroke="none"/>
      <path fill="none" d="M455.25 744.4994 L455.25 750.7816" clip-path="url(#clipPath2)"/>
      <path d="M455.25 758.7816 L460.25 746.7816 L455.25 749.7816 L450.25 746.7816 Z" clip-path="url(#clipPath2)" stroke="none"/>
      <path fill="none" d="M455.25 798.7627 L455.25 804.736" clip-path="url(#clipPath2)"/>
      <path d="M455.25 812.736 L460.25 800.736 L455.25 803.736 L450.25 800.736 Z" clip-path="url(#clipPath2)" stroke="none"/>
      <path fill="none" d="M455.25 380.9951 L455.25 403.0273" clip-path="url(#clipPath2)"/>
      <path d="M455.25 411.0273 L460.25 399.0273 L455.25 402.0273 L450.25 399.0273 Z" clip-path="url(#clipPath2)" stroke="none"/>
      <path fill="none" d="M668 663.976 L668 669.9999" clip-path="url(#clipPath2)"/>
      <path d="M668 677.9999 L673 665.9999 L668 668.9999 L663 665.9999 Z" clip-path="url(#clipPath2)" stroke="none"/>
      <path fill="none" d="M455.25 852.7627 L455.25 858.736" clip-path="url(#clipPath2)"/>
      <path d="M455.25 866.736 L460.25 854.736 L455.25 857.736 L450.25 854.736 Z" clip-path="url(#clipPath2)" stroke="none"/>
      <path fill="none" d="M455.25 906.7721 L455.25 944.0303" clip-path="url(#clipPath2)"/>
      <path d="M455.25 952.0303 L460.25 940.0303 L455.25 943.0303 L450.25 940.0303 Z" clip-path="url(#clipPath2)" stroke="none"/>
      <path fill="none" d="M777.25 937.9609 L777.25 944.0118" clip-path="url(#clipPath2)"/>
      <path d="M777.25 952.0118 L782.25 940.0118 L777.25 943.0118 L772.25 940.0118 Z" clip-path="url(#clipPath2)" stroke="none"/>
      <path fill="none" d="M683.0271 972 L546.0308 972" clip-path="url(#clipPath2)"/>
      <path d="M538.0308 972 L550.0308 977 L547.0308 972 L550.0308 967 Z" clip-path="url(#clipPath2)" stroke="none"/>
      <path fill="none" d="M455.25 515.5261 L455.25 525.012" clip-path="url(#clipPath2)"/>
      <path d="M455.25 533.012 L460.25 521.012 L455.25 524.012 L450.25 521.012 Z" clip-path="url(#clipPath2)" stroke="none"/>
      <text x="417.0908" xml:space="preserve" y="528.9043" font-family="sans-serif" clip-path="url(#clipPath2)" stroke="none">No</text>
      <path fill="none" d="M455.25 580.0291 L455.25 589.4975" clip-path="url(#clipPath2)"/>
      <path d="M455.25 597.4975 L460.25 585.4975 L455.25 588.4975 L450.25 585.4975 Z" clip-path="url(#clipPath2)" stroke="none"/>
      <text x="417.0908" xml:space="preserve" y="593.4043" font-family="sans-serif" clip-path="url(#clipPath2)" stroke="none">No</text>
      <path fill="none" d="M361.006 556.5 L128.25 556.5 L128.25 838 L353.0113 838" clip-path="url(#clipPath2)"/>
      <path d="M361.0113 838 L349.0113 833 L352.0113 838 L349.0113 843 Z" clip-path="url(#clipPath2)" stroke="none"/>
      <text x="225.4014" xml:space="preserve" y="530.6543" font-family="sans-serif" clip-path="url(#clipPath2)" stroke="none">Yes</text>
      <path fill="none" d="M668 737.2318 L668 743.2178" clip-path="url(#clipPath2)"/>
      <path d="M668 751.2178 L673 739.2178 L668 742.2178 L663 739.2178 Z" clip-path="url(#clipPath2)" stroke="none"/>
      <path fill="none" d="M668 791.2795 L668 832.75 L557.4968 832.75" clip-path="url(#clipPath2)"/>
      <path d="M549.4968 832.75 L561.4968 837.75 L558.4968 832.75 L561.4968 827.75 Z" clip-path="url(#clipPath2)" stroke="none"/>
    </g>
  </g>
</svg>
