<?xml version="1.0" encoding="UTF-8"?><svg xmlns="http://www.w3.org/2000/svg" xmlns:xlink="http://www.w3.org/1999/xlink" fill-opacity="1" color-rendering="auto" color-interpolation="auto" stroke="black" text-rendering="auto" stroke-linecap="square" width="219" stroke-miterlimit="10" stroke-opacity="1" shape-rendering="auto" fill="black" stroke-dasharray="none" font-weight="normal" stroke-width="1" height="230" font-family="'Dialog'" font-style="normal" stroke-linejoin="miter" font-size="12" stroke-dashoffset="0" image-rendering="auto">
  <!--Generated by ySVG 2.5-->
  <defs id="genericDefs"/>
  <g>
    <defs id="defs1">
      <clipPath clipPathUnits="userSpaceOnUse" id="clipPath1">
        <path d="M0 0 L219 0 L219 230 L0 230 L0 0 Z"/>
      </clipPath>
      <clipPath clipPathUnits="userSpaceOnUse" id="clipPath2">
        <path d="M371 351 L590 351 L590 581 L371 581 L371 351 Z"/>
      </clipPath>
    </defs>
    <g text-rendering="optimizeQuality" stroke-miterlimit="1.45" shape-rendering="geometricPrecision" transform="matrix(1,0,0,1,-371,-351)" stroke-linecap="butt">
      <rect x="398" y="366" clip-path="url(#clipPath2)" fill="none" width="165.5" rx="20" ry="20" height="40"/>
      <text x="425.3906" xml:space="preserve" y="390.1543" font-family="sans-serif" clip-path="url(#clipPath2)" stroke="none">IR detect interrupt</text>
    </g>
    <g text-rendering="optimizeQuality" stroke-miterlimit="1.45" shape-rendering="geometricPrecision" transform="matrix(1,0,0,1,-371,-351)" stroke-linecap="butt">
      <path fill="none" d="M386.5 436 L575 436 L575 495.25 L386.5 495.25 Z" clip-path="url(#clipPath2)"/>
      <text x="425.5195" xml:space="preserve" y="462.7949" font-family="sans-serif" clip-path="url(#clipPath2)" stroke="none">frequency capture</text>
      <text x="451.1631" xml:space="preserve" y="476.7637" font-family="sans-serif" clip-path="url(#clipPath2)" stroke="none">count + 1</text>
    </g>
    <g text-rendering="optimizeQuality" stroke-miterlimit="1.45" shape-rendering="geometricPrecision" transform="matrix(1,0,0,1,-371,-351)" stroke-linecap="butt">
      <rect x="398" y="525.25" clip-path="url(#clipPath2)" fill="none" width="165.5" rx="20" ry="20" height="40"/>
      <text x="460.4648" xml:space="preserve" y="549.4043" font-family="sans-serif" clip-path="url(#clipPath2)" stroke="none">Return</text>
    </g>
    <g text-rendering="optimizeQuality" stroke-miterlimit="1.45" shape-rendering="geometricPrecision" transform="matrix(1,0,0,1,-371,-351)" stroke-linecap="butt">
      <path fill="none" d="M480.75 406.0229 L480.75 428.0276" clip-path="url(#clipPath2)"/>
    </g>
    <g text-rendering="optimizeQuality" stroke-miterlimit="1.45" shape-rendering="geometricPrecision" transform="matrix(1,0,0,1,-371,-351)" stroke-linecap="butt">
      <path d="M480.75 436.0276 L485.75 424.0276 L480.75 427.0276 L475.75 424.0276 Z" clip-path="url(#clipPath2)" stroke="none"/>
      <path fill="none" d="M480.75 495.2122 L480.75 517.2642" clip-path="url(#clipPath2)"/>
      <path d="M480.75 525.2642 L485.75 513.2642 L480.75 516.2642 L475.75 513.2642 Z" clip-path="url(#clipPath2)" stroke="none"/>
    </g>
  </g>
</svg>
