<?xml version="1.0" encoding="UTF-8"?><svg xmlns="http://www.w3.org/2000/svg" xmlns:xlink="http://www.w3.org/1999/xlink" fill-opacity="1" color-rendering="auto" color-interpolation="auto" stroke="black" text-rendering="auto" stroke-linecap="square" width="895" stroke-miterlimit="10" stroke-opacity="1" shape-rendering="auto" fill="black" stroke-dasharray="none" font-weight="normal" stroke-width="1" height="907" font-family="'Dialog'" font-style="normal" stroke-linejoin="miter" font-size="12" stroke-dashoffset="0" image-rendering="auto">
  <!--Generated by ySVG 2.5-->
  <defs id="genericDefs"/>
  <g>
    <defs id="defs1">
      <clipPath clipPathUnits="userSpaceOnUse" id="clipPath1">
        <path d="M0 0 L895 0 L895 907 L0 907 L0 0 Z"/>
      </clipPath>
      <clipPath clipPathUnits="userSpaceOnUse" id="clipPath2">
        <path d="M157 68 L1052 68 L1052 975 L157 975 L157 68 Z"/>
      </clipPath>
    </defs>
    <g text-rendering="optimizeQuality" stroke-miterlimit="1.45" shape-rendering="geometricPrecision" transform="matrix(1,0,0,1,-157,-68)" stroke-linecap="butt">
      <path fill="none" d="M411.25 264 L599.75 264 L599.75 304 L411.25 304 Z" clip-path="url(#clipPath2)"/>
      <text x="469.5176" xml:space="preserve" y="288.1543" font-family="sans-serif" clip-path="url(#clipPath2)" stroke="none">Get timeout</text>
    </g>
    <g text-rendering="optimizeQuality" stroke-miterlimit="1.45" shape-rendering="geometricPrecision" transform="matrix(1,0,0,1,-157,-68)" stroke-linecap="butt">
      <path fill="none" d="M505.5 321.5 L599.75 345 L505.5 368.5 L411.25 345 Z" clip-path="url(#clipPath2)"/>
      <text x="469.8105" xml:space="preserve" y="349.1543" font-family="sans-serif" clip-path="url(#clipPath2)" stroke="none">IR medium?</text>
    </g>
    <g text-rendering="optimizeQuality" stroke-miterlimit="1.45" shape-rendering="geometricPrecision" transform="matrix(1,0,0,1,-157,-68)" stroke-linecap="butt">
      <rect x="422.75" y="919.5" clip-path="url(#clipPath2)" fill="none" width="165.5" rx="20" ry="20" height="40"/>
      <text x="485.2148" xml:space="preserve" y="943.6543" font-family="sans-serif" clip-path="url(#clipPath2)" stroke="none">Return</text>
    </g>
    <g text-rendering="optimizeQuality" stroke-miterlimit="1.45" shape-rendering="geometricPrecision" transform="matrix(1,0,0,1,-157,-68)" stroke-linecap="butt">
      <rect x="422.75" y="83.5" clip-path="url(#clipPath2)" fill="none" width="165.5" rx="20" ry="20" height="40"/>
      <text x="459.8467" xml:space="preserve" y="107.6543" font-family="sans-serif" clip-path="url(#clipPath2)" stroke="none">Timer interrupt</text>
    </g>
    <g text-rendering="optimizeQuality" stroke-miterlimit="1.45" shape-rendering="geometricPrecision" transform="matrix(1,0,0,1,-157,-68)" stroke-linecap="butt">
      <path fill="none" d="M192.75 389.5 L381.25 389.5 L381.25 429.5 L192.75 429.5 Z" clip-path="url(#clipPath2)"/>
      <text x="250.0537" xml:space="preserve" y="413.6543" font-family="sans-serif" clip-path="url(#clipPath2)" stroke="none">Toggle PWM</text>
    </g>
    <g text-rendering="optimizeQuality" stroke-miterlimit="1.45" shape-rendering="geometricPrecision" transform="matrix(1,0,0,1,-157,-68)" stroke-linecap="butt">
      <path fill="none" d="M505.5 450.5 L599.75 474 L505.5 497.5 L411.25 474 Z" clip-path="url(#clipPath2)"/>
      <text x="445.4414" xml:space="preserve" y="478.1543" font-family="sans-serif" clip-path="url(#clipPath2)" stroke="none">data position == 0?</text>
    </g>
    <g text-rendering="optimizeQuality" stroke-miterlimit="1.45" shape-rendering="geometricPrecision" transform="matrix(1,0,0,1,-157,-68)" stroke-linecap="butt">
      <path fill="none" d="M505.5 515 L599.75 538.5 L505.5 562 L411.25 538.5 Z" clip-path="url(#clipPath2)"/>
      <text x="455.4199" xml:space="preserve" y="542.6543" font-family="sans-serif" clip-path="url(#clipPath2)" stroke="none">Output enabled?</text>
    </g>
    <g text-rendering="optimizeQuality" stroke-miterlimit="1.45" shape-rendering="geometricPrecision" transform="matrix(1,0,0,1,-157,-68)" stroke-linecap="butt">
      <path fill="none" d="M192.75 579.5 L381.25 579.5 L381.25 619.5 L192.75 619.5 Z" clip-path="url(#clipPath2)"/>
      <text x="243.3242" xml:space="preserve" y="603.6543" font-family="sans-serif" clip-path="url(#clipPath2)" stroke="none">timeout + 160</text>
    </g>
    <g text-rendering="optimizeQuality" stroke-miterlimit="1.45" shape-rendering="geometricPrecision" transform="matrix(1,0,0,1,-157,-68)" stroke-linecap="butt">
      <path fill="none" d="M192.75 633.5 L381.25 633.5 L381.25 673.5 L192.75 673.5 Z" clip-path="url(#clipPath2)"/>
      <text x="220.001" xml:space="preserve" y="657.6543" font-family="sans-serif" clip-path="url(#clipPath2)" stroke="none">output enabled = true</text>
    </g>
    <g text-rendering="optimizeQuality" stroke-miterlimit="1.45" shape-rendering="geometricPrecision" transform="matrix(1,0,0,1,-157,-68)" stroke-linecap="butt">
      <path fill="none" d="M411.25 579.5 L599.75 579.5 L599.75 619.5 L411.25 619.5 Z" clip-path="url(#clipPath2)"/>
      <text x="464.6865" xml:space="preserve" y="603.6543" font-family="sans-serif" clip-path="url(#clipPath2)" stroke="none">timeout - 160</text>
    </g>
    <g text-rendering="optimizeQuality" stroke-miterlimit="1.45" shape-rendering="geometricPrecision" transform="matrix(1,0,0,1,-157,-68)" stroke-linecap="butt">
      <path fill="none" d="M411.25 633.5 L599.75 633.5 L599.75 673.5 L411.25 673.5 Z" clip-path="url(#clipPath2)"/>
      <text x="436.541" xml:space="preserve" y="657.6543" font-family="sans-serif" clip-path="url(#clipPath2)" stroke="none">output enabled = false</text>
    </g>
    <g text-rendering="optimizeQuality" stroke-miterlimit="1.45" shape-rendering="geometricPrecision" transform="matrix(1,0,0,1,-157,-68)" stroke-linecap="butt">
      <path fill="none" d="M411.25 687.5 L599.75 687.5 L599.75 727.5 L411.25 727.5 Z" clip-path="url(#clipPath2)"/>
      <text x="466.2891" xml:space="preserve" y="711.6543" font-family="sans-serif" clip-path="url(#clipPath2)" stroke="none">Toggle Radio</text>
    </g>
    <g text-rendering="optimizeQuality" stroke-miterlimit="1.45" shape-rendering="geometricPrecision" transform="matrix(1,0,0,1,-157,-68)" stroke-linecap="butt">
      <path fill="none" d="M505.5 153.5 L599.75 200 L505.5 246.5 L411.25 200 Z" clip-path="url(#clipPath2)"/>
      <text x="464.4053" xml:space="preserve" y="197.1699" font-family="sans-serif" clip-path="url(#clipPath2)" stroke="none">data position </text>
      <text x="439.374" xml:space="preserve" y="211.1387" font-family="sans-serif" clip-path="url(#clipPath2)" stroke="none">&gt;= command length?</text>
    </g>
    <g text-rendering="optimizeQuality" stroke-miterlimit="1.45" shape-rendering="geometricPrecision" transform="matrix(1,0,0,1,-157,-68)" stroke-linecap="butt">
      <path fill="none" d="M411.25 741.5 L599.75 741.5 L599.75 781.5 L411.25 781.5 Z" clip-path="url(#clipPath2)"/>
      <text x="453.6533" xml:space="preserve" y="765.6543" font-family="sans-serif" clip-path="url(#clipPath2)" stroke="none">data position + 1</text>
    </g>
    <g text-rendering="optimizeQuality" stroke-miterlimit="1.45" shape-rendering="geometricPrecision" transform="matrix(1,0,0,1,-157,-68)" stroke-linecap="butt">
      <path fill="none" d="M411.25 795.5 L599.75 795.5 L599.75 835.5 L411.25 835.5 Z" clip-path="url(#clipPath2)"/>
      <text x="471.5273" xml:space="preserve" y="819.6543" font-family="sans-serif" clip-path="url(#clipPath2)" stroke="none">Toggle LED</text>
    </g>
    <g text-rendering="optimizeQuality" stroke-miterlimit="1.45" shape-rendering="geometricPrecision" transform="matrix(1,0,0,1,-157,-68)" stroke-linecap="butt">
      <path fill="none" d="M411.25 849.5 L599.75 849.5 L599.75 889.5 L411.25 889.5 Z" clip-path="url(#clipPath2)"/>
      <text x="438.627" xml:space="preserve" y="873.6543" font-family="sans-serif" clip-path="url(#clipPath2)" stroke="none">Set new timer interval</text>
    </g>
    <g text-rendering="optimizeQuality" stroke-miterlimit="1.45" shape-rendering="geometricPrecision" transform="matrix(1,0,0,1,-157,-68)" stroke-linecap="butt">
      <path fill="none" d="M629.75 264 L818.25 264 L818.25 304 L629.75 304 Z" clip-path="url(#clipPath2)"/>
      <text x="688.082" xml:space="preserve" y="288.1543" font-family="sans-serif" clip-path="url(#clipPath2)" stroke="none">Disable LED</text>
    </g>
    <g text-rendering="optimizeQuality" stroke-miterlimit="1.45" shape-rendering="geometricPrecision" transform="matrix(1,0,0,1,-157,-68)" stroke-linecap="butt">
      <path fill="none" d="M724 325 L818.25 348.5 L724 372 L629.75 348.5 Z" clip-path="url(#clipPath2)"/>
      <text x="688.3105" xml:space="preserve" y="352.6543" font-family="sans-serif" clip-path="url(#clipPath2)" stroke="none">IR medium?</text>
    </g>
    <g text-rendering="optimizeQuality" stroke-miterlimit="1.45" shape-rendering="geometricPrecision" transform="matrix(1,0,0,1,-157,-68)" stroke-linecap="butt">
      <path fill="none" d="M848.25 393 L1036.75 393 L1036.75 433 L848.25 433 Z" clip-path="url(#clipPath2)"/>
      <text x="912.2246" xml:space="preserve" y="417.1543" font-family="sans-serif" clip-path="url(#clipPath2)" stroke="none">Stop PWM</text>
    </g>
    <g text-rendering="optimizeQuality" stroke-miterlimit="1.45" shape-rendering="geometricPrecision" transform="matrix(1,0,0,1,-157,-68)" stroke-linecap="butt">
      <path fill="none" d="M629.75 393 L818.25 393 L818.25 433 L629.75 433 Z" clip-path="url(#clipPath2)"/>
      <text x="682.8438" xml:space="preserve" y="417.1543" font-family="sans-serif" clip-path="url(#clipPath2)" stroke="none">Disable Radio</text>
    </g>
    <g text-rendering="optimizeQuality" stroke-miterlimit="1.45" shape-rendering="geometricPrecision" transform="matrix(1,0,0,1,-157,-68)" stroke-linecap="butt">
      <path fill="none" d="M629.75 450.5 L818.25 450.5 L818.25 490.5 L629.75 490.5 Z" clip-path="url(#clipPath2)"/>
      <text x="650.9365" xml:space="preserve" y="474.6543" font-family="sans-serif" clip-path="url(#clipPath2)" stroke="none">current repeat count +1</text>
    </g>
    <g text-rendering="optimizeQuality" stroke-miterlimit="1.45" shape-rendering="geometricPrecision" transform="matrix(1,0,0,1,-157,-68)" stroke-linecap="butt">
      <path fill="none" d="M724 508 L818.25 554.5 L724 601 L629.75 554.5 Z" clip-path="url(#clipPath2)"/>
      <text x="661.6885" xml:space="preserve" y="551.6699" font-family="sans-serif" clip-path="url(#clipPath2)" stroke="none">current repeat count</text>
      <text x="678.543" xml:space="preserve" y="565.6387" font-family="sans-serif" clip-path="url(#clipPath2)" stroke="none">&lt; repeat count</text>
    </g>
    <g text-rendering="optimizeQuality" stroke-miterlimit="1.45" shape-rendering="geometricPrecision" transform="matrix(1,0,0,1,-157,-68)" stroke-linecap="butt">
      <path fill="none" d="M629.75 618.5 L818.25 618.5 L818.25 658.5 L629.75 658.5 Z" clip-path="url(#clipPath2)"/>
      <text x="672.1533" xml:space="preserve" y="642.6543" font-family="sans-serif" clip-path="url(#clipPath2)" stroke="none">data position = 0</text>
    </g>
    <g text-rendering="optimizeQuality" stroke-miterlimit="1.45" shape-rendering="geometricPrecision" transform="matrix(1,0,0,1,-157,-68)" stroke-linecap="butt">
      <path fill="none" d="M848.25 618.5 L1036.75 618.5 L1036.75 658.5 L848.25 658.5 Z" clip-path="url(#clipPath2)"/>
      <text x="910.9297" xml:space="preserve" y="642.6543" font-family="sans-serif" clip-path="url(#clipPath2)" stroke="none">Stop timer</text>
    </g>
    <g text-rendering="optimizeQuality" stroke-miterlimit="1.45" shape-rendering="geometricPrecision" transform="matrix(1,0,0,1,-157,-68)" stroke-linecap="butt">
      <path fill="none" d="M848.25 676 L1036.75 676 L1036.75 716 L848.25 716 Z" clip-path="url(#clipPath2)"/>
      <text x="864.377" xml:space="preserve" y="700.1543" font-family="sans-serif" clip-path="url(#clipPath2)" stroke="none">command running = false</text>
    </g>
    <g text-rendering="optimizeQuality" stroke-miterlimit="1.45" shape-rendering="geometricPrecision" transform="matrix(1,0,0,1,-157,-68)" stroke-linecap="butt">
      <path fill="none" d="M505.5 303.9858 L505.5 313.489" clip-path="url(#clipPath2)"/>
    </g>
    <g text-rendering="optimizeQuality" stroke-miterlimit="1.45" shape-rendering="geometricPrecision" transform="matrix(1,0,0,1,-157,-68)" stroke-linecap="butt">
      <path d="M505.5 321.489 L510.5 309.489 L505.5 312.489 L500.5 309.489 Z" clip-path="url(#clipPath2)" stroke="none"/>
      <path fill="none" d="M411.2665 345 L287 345 L287 381.5012" clip-path="url(#clipPath2)"/>
      <path d="M287 389.5012 L292 377.5012 L287 380.5012 L282 377.5012 Z" clip-path="url(#clipPath2)" stroke="none"/>
      <text x="329.9014" xml:space="preserve" y="319.1543" font-family="sans-serif" clip-path="url(#clipPath2)" stroke="none">Yes</text>
      <path fill="none" d="M505.5 368.5261 L505.5 442.4898" clip-path="url(#clipPath2)"/>
      <path d="M505.5 450.4898 L510.5 438.4898 L505.5 441.4898 L500.5 438.4898 Z" clip-path="url(#clipPath2)" stroke="none"/>
      <text x="467.3408" xml:space="preserve" y="413.6543" font-family="sans-serif" clip-path="url(#clipPath2)" stroke="none">No</text>
      <path fill="none" d="M505.5 497.5261 L505.5 507.0121" clip-path="url(#clipPath2)"/>
      <path d="M505.5 515.0121 L510.5 503.0121 L505.5 506.0121 L500.5 503.0121 Z" clip-path="url(#clipPath2)" stroke="none"/>
      <text x="467.3408" xml:space="preserve" y="510.9043" font-family="sans-serif" clip-path="url(#clipPath2)" stroke="none">No</text>
      <path fill="none" d="M411.2525 538.5 L297 538.5 L297 571.5142" clip-path="url(#clipPath2)"/>
      <path d="M297 579.5142 L302 567.5142 L297 570.5142 L292 567.5142 Z" clip-path="url(#clipPath2)" stroke="none"/>
      <text x="334.9014" xml:space="preserve" y="512.6543" font-family="sans-serif" clip-path="url(#clipPath2)" stroke="none">Yes</text>
      <path fill="none" d="M411.2493 474 L277 474 L277 571.4929" clip-path="url(#clipPath2)"/>
      <path d="M277 579.4929 L282 567.4929 L277 570.4929 L272 567.4929 Z" clip-path="url(#clipPath2)" stroke="none"/>
      <text x="324.9014" xml:space="preserve" y="448.1543" font-family="sans-serif" clip-path="url(#clipPath2)" stroke="none">Yes</text>
      <path fill="none" d="M287 619.5127 L287 625.486" clip-path="url(#clipPath2)"/>
      <path d="M287 633.486 L292 621.486 L287 624.486 L282 621.486 Z" clip-path="url(#clipPath2)" stroke="none"/>
      <path fill="none" d="M505.5 562.0005 L505.5 569 L505.5 569 L505.5 571.5142" clip-path="url(#clipPath2)"/>
      <path d="M505.5 579.5142 L510.5 567.5142 L505.5 570.5142 L500.5 567.5142 Z" clip-path="url(#clipPath2)" stroke="none"/>
      <text x="467.3408" xml:space="preserve" y="571.4043" font-family="sans-serif" clip-path="url(#clipPath2)" stroke="none">No</text>
      <path fill="none" d="M505.5 619.5127 L505.5 625.486" clip-path="url(#clipPath2)"/>
      <path d="M505.5 633.486 L510.5 621.486 L505.5 624.486 L500.5 621.486 Z" clip-path="url(#clipPath2)" stroke="none"/>
      <path fill="none" d="M287 673.5127 L287 707.5 L403.2665 707.5" clip-path="url(#clipPath2)"/>
      <path d="M411.2665 707.5 L399.2665 702.5 L402.2665 707.5 L399.2665 712.5 Z" clip-path="url(#clipPath2)" stroke="none"/>
      <path fill="none" d="M505.5 673.5127 L505.5 679.486" clip-path="url(#clipPath2)"/>
      <path d="M505.5 687.486 L510.5 675.486 L505.5 678.486 L500.5 675.486 Z" clip-path="url(#clipPath2)" stroke="none"/>
      <path fill="none" d="M505.5 123.5256 L505.5 145.5105" clip-path="url(#clipPath2)"/>
      <path d="M505.5 153.5105 L510.5 141.5105 L505.5 144.5105 L500.5 141.5105 Z" clip-path="url(#clipPath2)" stroke="none"/>
      <path fill="none" d="M505.5 246.4707 L505.5 256.0259" clip-path="url(#clipPath2)"/>
      <path d="M505.5 264.0259 L510.5 252.0259 L505.5 255.0259 L500.5 252.0259 Z" clip-path="url(#clipPath2)" stroke="none"/>
      <path fill="none" d="M505.5 727.5127 L505.5 734.5 L505.5 734.5 L505.5 741.4873" clip-path="url(#clipPath2)"/>
      <path d="M505.5 741.4873 L510.5 729.4873 L505.5 732.4873 L500.5 729.4873 Z" clip-path="url(#clipPath2)" stroke="none"/>
      <path fill="none" d="M192.7493 409.5 L172.75 409.5 L172.75 761.5 L403.2235 761.5" clip-path="url(#clipPath2)"/>
      <path d="M411.2235 761.5 L399.2235 756.5 L402.2235 761.5 L399.2235 766.5 Z" clip-path="url(#clipPath2)" stroke="none"/>
      <path fill="none" d="M505.5 781.5127 L505.5 787.486" clip-path="url(#clipPath2)"/>
      <path d="M505.5 795.486 L510.5 783.486 L505.5 786.486 L500.5 783.486 Z" clip-path="url(#clipPath2)" stroke="none"/>
      <path fill="none" d="M505.5 835.5127 L505.5 841.486" clip-path="url(#clipPath2)"/>
      <path d="M505.5 849.486 L510.5 837.486 L505.5 840.486 L500.5 837.486 Z" clip-path="url(#clipPath2)" stroke="none"/>
      <path fill="none" d="M505.5 889.4951 L505.5 904.5 L505.5 904.5 L505.5 911.5049" clip-path="url(#clipPath2)"/>
      <path d="M505.5 919.5049 L510.5 907.5049 L505.5 910.5049 L500.5 907.5049 Z" clip-path="url(#clipPath2)" stroke="none"/>
      <path fill="none" d="M599.7335 200 L724 200 L724 256.0254" clip-path="url(#clipPath2)"/>
      <path d="M724 264.0254 L729 252.0254 L724 255.0254 L719 252.0254 Z" clip-path="url(#clipPath2)" stroke="none"/>
      <path fill="none" d="M724 303.9988 L724 316.9891" clip-path="url(#clipPath2)"/>
      <path d="M724 324.9891 L729 312.9891 L724 315.9891 L719 312.9891 Z" clip-path="url(#clipPath2)" stroke="none"/>
      <path fill="none" d="M818.2335 348.5 L942.5 348.5 L942.5 385.0012" clip-path="url(#clipPath2)"/>
      <path d="M942.5 393.0012 L947.5 381.0012 L942.5 384.0012 L937.5 381.0012 Z" clip-path="url(#clipPath2)" stroke="none"/>
      <text x="878.6338" xml:space="preserve" y="322.6543" font-family="sans-serif" clip-path="url(#clipPath2)" stroke="none">Yes</text>
      <path fill="none" d="M724 372.0261 L724 385.0332" clip-path="url(#clipPath2)"/>
      <path d="M724 393.0332 L729 381.0332 L724 384.0332 L719 381.0332 Z" clip-path="url(#clipPath2)" stroke="none"/>
      <text x="685.8408" xml:space="preserve" y="387.1543" font-family="sans-serif" clip-path="url(#clipPath2)" stroke="none">No</text>
      <path fill="none" d="M724 433.0183 L724 442.4781" clip-path="url(#clipPath2)"/>
      <path d="M724 450.4781 L729 438.4781 L724 441.4781 L719 438.4781 Z" clip-path="url(#clipPath2)" stroke="none"/>
      <path fill="none" d="M942.5 433.0183 L942.5 470.5 L826.2335 470.5" clip-path="url(#clipPath2)"/>
      <path d="M818.2335 470.5 L830.2335 475.5 L827.2335 470.5 L830.2335 465.5 Z" clip-path="url(#clipPath2)" stroke="none"/>
      <path fill="none" d="M724 490.4746 L724 500.0128" clip-path="url(#clipPath2)"/>
      <path d="M724 508.0128 L729 496.0128 L724 499.0128 L719 496.0128 Z" clip-path="url(#clipPath2)" stroke="none"/>
      <path fill="none" d="M724 600.9707 L724 610.5259" clip-path="url(#clipPath2)"/>
      <path d="M724 618.5259 L729 606.5259 L724 609.5259 L719 606.5259 Z" clip-path="url(#clipPath2)" stroke="none"/>
      <text x="683.5176" xml:space="preserve" y="614.4043" font-family="sans-serif" clip-path="url(#clipPath2)" stroke="none">Yes</text>
      <path fill="none" d="M724 658.4926 L724 869.5 L607.7335 869.5" clip-path="url(#clipPath2)"/>
      <path d="M599.7335 869.5 L611.7335 874.5 L608.7335 869.5 L611.7335 864.5 Z" clip-path="url(#clipPath2)" stroke="none"/>
      <path fill="none" d="M818.2335 554.5 L942.5 554.5 L942.5 610.5254" clip-path="url(#clipPath2)"/>
      <path d="M942.5 618.5254 L947.5 606.5254 L942.5 609.5254 L937.5 606.5254 Z" clip-path="url(#clipPath2)" stroke="none"/>
      <text x="879.7954" xml:space="preserve" y="528.6543" font-family="sans-serif" clip-path="url(#clipPath2)" stroke="none">No</text>
      <path fill="none" d="M942.5 658.5183 L942.5 667.978" clip-path="url(#clipPath2)"/>
      <path d="M942.5 675.978 L947.5 663.978 L942.5 666.978 L937.5 663.978 Z" clip-path="url(#clipPath2)" stroke="none"/>
      <path fill="none" d="M942.5 715.976 L942.5 950.5 L592.9224 950.5" clip-path="url(#clipPath2)"/>
      <path d="M584.9224 950.5 L596.9224 955.5 L593.9224 950.5 L596.9224 945.5 Z" clip-path="url(#clipPath2)" stroke="none"/>
    </g>
  </g>
</svg>
