<?xml version="1.0" encoding="UTF-8"?><svg xmlns="http://www.w3.org/2000/svg" xmlns:xlink="http://www.w3.org/1999/xlink" fill-opacity="1" color-rendering="auto" color-interpolation="auto" stroke="black" text-rendering="auto" stroke-linecap="square" width="518" stroke-miterlimit="10" stroke-opacity="1" shape-rendering="auto" fill="black" stroke-dasharray="none" font-weight="normal" stroke-width="1" height="740" font-family="'Dialog'" font-style="normal" stroke-linejoin="miter" font-size="12" stroke-dashoffset="0" image-rendering="auto">
  <!--Generated by ySVG 2.5-->
  <defs id="genericDefs"/>
  <g>
    <defs id="defs1">
      <clipPath clipPathUnits="userSpaceOnUse" id="clipPath1">
        <path d="M0 0 L518 0 L518 740 L0 740 L0 0 Z"/>
      </clipPath>
      <clipPath clipPathUnits="userSpaceOnUse" id="clipPath2">
        <path d="M256 73 L774 73 L774 813 L256 813 L256 73 Z"/>
      </clipPath>
    </defs>
    <g text-rendering="optimizeQuality" stroke-miterlimit="1.45" shape-rendering="geometricPrecision" transform="matrix(1,0,0,1,-256,-73)" stroke-linecap="butt">
      <path fill="none" d="M352 403.5 L540.5 403.5 L540.5 443.5 L352 443.5 Z" clip-path="url(#clipPath2)"/>
      <text x="382.5205" xml:space="preserve" y="427.6543" font-family="sans-serif" clip-path="url(#clipPath2)" stroke="none">Enable Radio module</text>
    </g>
    <g text-rendering="optimizeQuality" stroke-miterlimit="1.45" shape-rendering="geometricPrecision" transform="matrix(1,0,0,1,-256,-73)" stroke-linecap="butt">
      <rect x="363.5" y="88" clip-path="url(#clipPath2)" fill="none" width="165.5" rx="20" ry="20" height="40"/>
      <text x="387.7588" xml:space="preserve" y="112.1543" font-family="sans-serif" clip-path="url(#clipPath2)" stroke="none">Start run command</text>
    </g>
    <g text-rendering="optimizeQuality" stroke-miterlimit="1.45" shape-rendering="geometricPrecision" transform="matrix(1,0,0,1,-256,-73)" stroke-linecap="butt">
      <path fill="none" d="M352 142 L540.5 142 L540.5 208 L352 208 Z" clip-path="url(#clipPath2)"/>
      <text x="370.0869" xml:space="preserve" y="165.1855" font-family="sans-serif" clip-path="url(#clipPath2)" stroke="none">command running = true</text>
      <text x="371.2793" xml:space="preserve" y="179.1543" font-family="sans-serif" clip-path="url(#clipPath2)" stroke="none">current repeat count = 0</text>
      <text x="394.4033" xml:space="preserve" y="193.123" font-family="sans-serif" clip-path="url(#clipPath2)" stroke="none">data position = 0</text>
    </g>
    <g text-rendering="optimizeQuality" stroke-miterlimit="1.45" shape-rendering="geometricPrecision" transform="matrix(1,0,0,1,-256,-73)" stroke-linecap="butt">
      <path fill="none" d="M446.25 222 L540.5 245.5 L446.25 269 L352 245.5 Z" clip-path="url(#clipPath2)"/>
      <text x="410.5605" xml:space="preserve" y="249.6543" font-family="sans-serif" clip-path="url(#clipPath2)" stroke="none">IR medium?</text>
    </g>
    <g text-rendering="optimizeQuality" stroke-miterlimit="1.45" shape-rendering="geometricPrecision" transform="matrix(1,0,0,1,-256,-73)" stroke-linecap="butt">
      <path fill="none" d="M446.25 285.75 L540.5 309.25 L446.25 332.75 L352 309.25 Z" clip-path="url(#clipPath2)"/>
      <text x="399.5068" xml:space="preserve" y="313.4043" font-family="sans-serif" clip-path="url(#clipPath2)" stroke="none">Radio medium?</text>
    </g>
    <g text-rendering="optimizeQuality" stroke-miterlimit="1.45" shape-rendering="geometricPrecision" transform="matrix(1,0,0,1,-256,-73)" stroke-linecap="butt">
      <path fill="none" d="M570.5 225.5 L759 225.5 L759 265.5 L570.5 265.5 Z" clip-path="url(#clipPath2)"/>
      <text x="605.6963" xml:space="preserve" y="249.6543" font-family="sans-serif" clip-path="url(#clipPath2)" stroke="none">Load IR parameters</text>
    </g>
    <g text-rendering="optimizeQuality" stroke-miterlimit="1.45" shape-rendering="geometricPrecision" transform="matrix(1,0,0,1,-256,-73)" stroke-linecap="butt">
      <path fill="none" d="M352 349.5 L540.5 349.5 L540.5 389.5 L352 389.5 Z" clip-path="url(#clipPath2)"/>
      <text x="376.1426" xml:space="preserve" y="373.6543" font-family="sans-serif" clip-path="url(#clipPath2)" stroke="none">Load Radio parameters</text>
    </g>
    <g text-rendering="optimizeQuality" stroke-miterlimit="1.45" shape-rendering="geometricPrecision" transform="matrix(1,0,0,1,-256,-73)" stroke-linecap="butt">
      <path fill="none" d="M352 457.5 L540.5 457.5 L540.5 497.5 L352 497.5 Z" clip-path="url(#clipPath2)"/>
      <text x="403.21" xml:space="preserve" y="481.6543" font-family="sans-serif" clip-path="url(#clipPath2)" stroke="none">Initialize timer</text>
    </g>
    <g text-rendering="optimizeQuality" stroke-miterlimit="1.45" shape-rendering="geometricPrecision" transform="matrix(1,0,0,1,-256,-73)" stroke-linecap="butt">
      <path fill="none" d="M352 511.5 L540.5 511.5 L540.5 551.5 L352 551.5 Z" clip-path="url(#clipPath2)"/>
      <text x="413.6631" xml:space="preserve" y="535.6543" font-family="sans-serif" clip-path="url(#clipPath2)" stroke="none">Start timer</text>
    </g>
    <g text-rendering="optimizeQuality" stroke-miterlimit="1.45" shape-rendering="geometricPrecision" transform="matrix(1,0,0,1,-256,-73)" stroke-linecap="butt">
      <path fill="none" d="M446.25 581.5 L540.5 605 L446.25 628.5 L352 605 Z" clip-path="url(#clipPath2)"/>
      <text x="387.167" xml:space="preserve" y="609.1543" font-family="sans-serif" clip-path="url(#clipPath2)" stroke="none">Command running?</text>
    </g>
    <g text-rendering="optimizeQuality" stroke-miterlimit="1.45" shape-rendering="geometricPrecision" transform="matrix(1,0,0,1,-256,-73)" stroke-linecap="butt">
      <path fill="none" d="M446.25 658.5 L540.5 682 L446.25 705.5 L352 682 Z" clip-path="url(#clipPath2)"/>
      <text x="411.5068" xml:space="preserve" y="686.1543" font-family="sans-serif" clip-path="url(#clipPath2)" stroke="none">User abort?</text>
    </g>
    <g text-rendering="optimizeQuality" stroke-miterlimit="1.45" shape-rendering="geometricPrecision" transform="matrix(1,0,0,1,-256,-73)" stroke-linecap="butt">
      <rect x="363.5" y="758" clip-path="url(#clipPath2)" fill="none" width="165.5" rx="20" ry="20" height="40"/>
      <text x="391.0137" xml:space="preserve" y="782.1543" font-family="sans-serif" clip-path="url(#clipPath2)" stroke="none">End run command</text>
    </g>
    <g text-rendering="optimizeQuality" stroke-miterlimit="1.45" shape-rendering="geometricPrecision" transform="matrix(1,0,0,1,-256,-73)" stroke-linecap="butt">
      <path fill="none" d="M446.25 127.9888 L446.25 133.9911" clip-path="url(#clipPath2)"/>
    </g>
    <g text-rendering="optimizeQuality" stroke-miterlimit="1.45" shape-rendering="geometricPrecision" transform="matrix(1,0,0,1,-256,-73)" stroke-linecap="butt">
      <path d="M446.25 141.9911 L451.25 129.9911 L446.25 132.9911 L441.25 129.9911 Z" clip-path="url(#clipPath2)" stroke="none"/>
      <path fill="none" d="M446.25 208.0125 L446.25 214.0337" clip-path="url(#clipPath2)"/>
      <path d="M446.25 222.0337 L451.25 210.0337 L446.25 213.0337 L441.25 210.0337 Z" clip-path="url(#clipPath2)" stroke="none"/>
      <path fill="none" d="M446.25 269.0016 L446.25 277.7849" clip-path="url(#clipPath2)"/>
      <path d="M446.25 285.7849 L451.25 273.7849 L446.25 276.7849 L441.25 273.7849 Z" clip-path="url(#clipPath2)" stroke="none"/>
      <text x="408.0908" xml:space="preserve" y="282.0293" font-family="sans-serif" clip-path="url(#clipPath2)" stroke="none">No</text>
      <path fill="none" d="M540.4835 245.5 L562.4882 245.5" clip-path="url(#clipPath2)"/>
      <path d="M570.4882 245.5 L558.4882 240.5 L561.4882 245.5 L558.4882 250.5 Z" clip-path="url(#clipPath2)" stroke="none"/>
      <text x="546.0176" xml:space="preserve" y="219.6543" font-family="sans-serif" clip-path="url(#clipPath2)" stroke="none">Yes</text>
      <path fill="none" d="M446.25 332.7557 L446.25 341.5131" clip-path="url(#clipPath2)"/>
      <path d="M446.25 349.5131 L451.25 337.5131 L446.25 340.5131 L441.25 337.5131 Z" clip-path="url(#clipPath2)" stroke="none"/>
      <text x="405.7676" xml:space="preserve" y="345.7793" font-family="sans-serif" clip-path="url(#clipPath2)" stroke="none">Yes</text>
      <path fill="none" d="M446.25 389.5127 L446.25 395.486" clip-path="url(#clipPath2)"/>
      <path d="M446.25 403.486 L451.25 391.486 L446.25 394.486 L441.25 391.486 Z" clip-path="url(#clipPath2)" stroke="none"/>
      <path fill="none" d="M446.25 389.5127 L446.25 395.486" clip-path="url(#clipPath2)"/>
      <path d="M446.25 403.486 L451.25 391.486 L446.25 394.486 L441.25 391.486 Z" clip-path="url(#clipPath2)" stroke="none"/>
      <path fill="none" d="M446.25 443.5127 L446.25 449.486" clip-path="url(#clipPath2)"/>
      <path d="M446.25 457.486 L451.25 445.486 L446.25 448.486 L441.25 445.486 Z" clip-path="url(#clipPath2)" stroke="none"/>
      <path fill="none" d="M664.75 265.5225 L664.75 477.5 L548.4835 477.5" clip-path="url(#clipPath2)"/>
      <path d="M540.4835 477.5 L552.4835 482.5 L549.4835 477.5 L552.4835 472.5 Z" clip-path="url(#clipPath2)" stroke="none"/>
      <path fill="none" d="M446.25 497.5127 L446.25 503.486" clip-path="url(#clipPath2)"/>
      <path d="M446.25 511.486 L451.25 499.486 L446.25 502.486 L441.25 499.486 Z" clip-path="url(#clipPath2)" stroke="none"/>
      <path fill="none" d="M446.25 551.49 L446.25 568.25 L447 568.25 L447 573.7083" clip-path="url(#clipPath2)"/>
      <path d="M447 581.7083 L452 569.7083 L447 572.7083 L442 569.7083 Z" clip-path="url(#clipPath2)" stroke="none"/>
      <path fill="none" d="M446.25 628.4985 L446.25 650.5147" clip-path="url(#clipPath2)"/>
      <path d="M446.25 658.5147 L451.25 646.5147 L446.25 649.5147 L441.25 646.5147 Z" clip-path="url(#clipPath2)" stroke="none"/>
      <text x="405.7676" xml:space="preserve" y="647.6543" font-family="sans-serif" clip-path="url(#clipPath2)" stroke="none">Yes</text>
      <path fill="none" d="M351.9993 682 L332 682 L332 605 L343.9993 605" clip-path="url(#clipPath2)"/>
      <path d="M351.9993 605 L339.9993 600 L342.9993 605 L339.9993 610 Z" clip-path="url(#clipPath2)" stroke="none"/>
      <text x="333.8408" xml:space="preserve" y="716.1543" font-family="sans-serif" clip-path="url(#clipPath2)" stroke="none">No</text>
      <path fill="none" d="M446.25 705.4844 L446.25 749.9944" clip-path="url(#clipPath2)"/>
      <path d="M446.25 757.9944 L451.25 745.9944 L446.25 748.9944 L441.25 745.9944 Z" clip-path="url(#clipPath2)" stroke="none"/>
      <text x="405.7676" xml:space="preserve" y="735.9043" font-family="sans-serif" clip-path="url(#clipPath2)" stroke="none">Yes</text>
      <path fill="none" d="M540.5007 605 L560.5 605 L560.5 778 L537.0087 778" clip-path="url(#clipPath2)"/>
      <path d="M529.0087 778 L541.0087 783 L538.0087 778 L541.0087 773 Z" clip-path="url(#clipPath2)" stroke="none"/>
      <text x="582.3408" xml:space="preserve" y="609.1543" font-family="sans-serif" clip-path="url(#clipPath2)" stroke="none">No</text>
      <path fill="none" d="M352.0193 309.25 L312 309.25 L312 778 L355.4909 778" clip-path="url(#clipPath2)"/>
      <path d="M363.4909 778 L351.4909 773 L354.4909 778 L351.4909 783 Z" clip-path="url(#clipPath2)" stroke="none"/>
      <text x="273.8408" xml:space="preserve" y="313.4043" font-family="sans-serif" clip-path="url(#clipPath2)" stroke="none">No</text>
    </g>
  </g>
</svg>
