<?xml version="1.0" encoding="UTF-8"?><svg xmlns="http://www.w3.org/2000/svg" xmlns:xlink="http://www.w3.org/1999/xlink" fill-opacity="1" color-rendering="auto" color-interpolation="auto" stroke="black" text-rendering="auto" stroke-linecap="square" width="498" stroke-miterlimit="10" stroke-opacity="1" shape-rendering="auto" fill="black" stroke-dasharray="none" font-weight="normal" stroke-width="1" height="575" font-family="'Dialog'" font-style="normal" stroke-linejoin="miter" font-size="12" stroke-dashoffset="0" image-rendering="auto">
  <!--Generated by ySVG 2.5-->
  <defs id="genericDefs"/>
  <g>
    <defs id="defs1">
      <clipPath clipPathUnits="userSpaceOnUse" id="clipPath1">
        <path d="M0 0 L498 0 L498 575 L0 575 L0 0 Z"/>
      </clipPath>
      <clipPath clipPathUnits="userSpaceOnUse" id="clipPath2">
        <path d="M285 67 L783 67 L783 642 L285 642 L285 67 Z"/>
      </clipPath>
    </defs>
    <g text-rendering="optimizeQuality" stroke-miterlimit="1.45" shape-rendering="geometricPrecision" transform="matrix(1,0,0,1,-285,-67)" stroke-linecap="butt">
      <path fill="none" d="M361 216.5 L549.5 216.5 L549.5 256.5 L361 256.5 Z" clip-path="url(#clipPath2)"/>
      <text x="402.0498" xml:space="preserve" y="240.6543" font-family="sans-serif" clip-path="url(#clipPath2)" stroke="none">Enable IR sensors</text>
    </g>
    <g text-rendering="optimizeQuality" stroke-miterlimit="1.45" shape-rendering="geometricPrecision" transform="matrix(1,0,0,1,-285,-67)" stroke-linecap="butt">
      <path fill="none" d="M361 324.5 L549.5 324.5 L549.5 364.5 L361 364.5 Z" clip-path="url(#clipPath2)"/>
      <text x="415.5996" xml:space="preserve" y="348.6543" font-family="sans-serif" clip-path="url(#clipPath2)" stroke="none">Start counter</text>
    </g>
    <g text-rendering="optimizeQuality" stroke-miterlimit="1.45" shape-rendering="geometricPrecision" transform="matrix(1,0,0,1,-285,-67)" stroke-linecap="butt">
      <rect x="372.5" y="82.5" clip-path="url(#clipPath2)" fill="none" width="165.5" rx="20" ry="20" height="40"/>
      <text x="407.7422" xml:space="preserve" y="106.6543" font-family="sans-serif" clip-path="url(#clipPath2)" stroke="none">Start IR capture</text>
    </g>
    <g text-rendering="optimizeQuality" stroke-miterlimit="1.45" shape-rendering="geometricPrecision" transform="matrix(1,0,0,1,-285,-67)" stroke-linecap="butt">
      <path fill="none" d="M361 136.5 L549.5 136.5 L549.5 202.5 L361 202.5 Z" clip-path="url(#clipPath2)"/>
      <text x="386.5693" xml:space="preserve" y="159.6855" font-family="sans-serif" clip-path="url(#clipPath2)" stroke="none">frame received = false</text>
      <text x="397.3652" xml:space="preserve" y="173.6543" font-family="sans-serif" clip-path="url(#clipPath2)" stroke="none">first capture = true</text>
      <text x="403.4033" xml:space="preserve" y="187.623" font-family="sans-serif" clip-path="url(#clipPath2)" stroke="none">data position = 0</text>
    </g>
    <g text-rendering="optimizeQuality" stroke-miterlimit="1.45" shape-rendering="geometricPrecision" transform="matrix(1,0,0,1,-285,-67)" stroke-linecap="butt">
      <path fill="none" d="M361 270.5 L549.5 270.5 L549.5 310.5 L361 310.5 Z" clip-path="url(#clipPath2)"/>
      <text x="395.5225" xml:space="preserve" y="294.6543" font-family="sans-serif" clip-path="url(#clipPath2)" stroke="none">Enable IR interrupts</text>
    </g>
    <g text-rendering="optimizeQuality" stroke-miterlimit="1.45" shape-rendering="geometricPrecision" transform="matrix(1,0,0,1,-285,-67)" stroke-linecap="butt">
      <path fill="none" d="M455.25 394.5 L549.5 418 L455.25 441.5 L361 418 Z" clip-path="url(#clipPath2)"/>
      <text x="405.1611" xml:space="preserve" y="422.1543" font-family="sans-serif" clip-path="url(#clipPath2)" stroke="none">Frame received?</text>
    </g>
    <g text-rendering="optimizeQuality" stroke-miterlimit="1.45" shape-rendering="geometricPrecision" transform="matrix(1,0,0,1,-285,-67)" stroke-linecap="butt">
      <path fill="none" d="M455.25 471.5 L549.5 495 L455.25 518.5 L361 495 Z" clip-path="url(#clipPath2)"/>
      <text x="420.5068" xml:space="preserve" y="499.1543" font-family="sans-serif" clip-path="url(#clipPath2)" stroke="none">User abort?</text>
    </g>
    <g text-rendering="optimizeQuality" stroke-miterlimit="1.45" shape-rendering="geometricPrecision" transform="matrix(1,0,0,1,-285,-67)" stroke-linecap="butt">
      <rect x="372.5" y="587" clip-path="url(#clipPath2)" fill="none" width="165.5" rx="20" ry="20" height="40"/>
      <text x="410.9971" xml:space="preserve" y="611.1543" font-family="sans-serif" clip-path="url(#clipPath2)" stroke="none">End IR capture</text>
    </g>
    <g text-rendering="optimizeQuality" stroke-miterlimit="1.45" shape-rendering="geometricPrecision" transform="matrix(1,0,0,1,-285,-67)" stroke-linecap="butt">
      <path fill="none" d="M579.5 531 L768 531 L768 571 L579.5 571 Z" clip-path="url(#clipPath2)"/>
      <text x="643.6006" xml:space="preserve" y="555.1543" font-family="sans-serif" clip-path="url(#clipPath2)" stroke="none">Save data</text>
    </g>
    <g text-rendering="optimizeQuality" stroke-miterlimit="1.45" shape-rendering="geometricPrecision" transform="matrix(1,0,0,1,-285,-67)" stroke-linecap="butt">
      <path fill="none" d="M579.5 475 L768 475 L768 515 L579.5 515 Z" clip-path="url(#clipPath2)"/>
      <text x="613.5947" xml:space="preserve" y="499.1543" font-family="sans-serif" clip-path="url(#clipPath2)" stroke="none">Calculate frequency</text>
    </g>
    <g text-rendering="optimizeQuality" stroke-miterlimit="1.45" shape-rendering="geometricPrecision" transform="matrix(1,0,0,1,-285,-67)" stroke-linecap="butt">
      <path fill="none" d="M579.5 587 L768 587 L768 627 L579.5 627 Z" clip-path="url(#clipPath2)"/>
      <text x="638.043" xml:space="preserve" y="611.1543" font-family="sans-serif" clip-path="url(#clipPath2)" stroke="none">Return data</text>
    </g>
    <g text-rendering="optimizeQuality" stroke-miterlimit="1.45" shape-rendering="geometricPrecision" transform="matrix(1,0,0,1,-285,-67)" stroke-linecap="butt">
      <path fill="none" d="M455.25 122.4888 L455.25 128.4911" clip-path="url(#clipPath2)"/>
    </g>
    <g text-rendering="optimizeQuality" stroke-miterlimit="1.45" shape-rendering="geometricPrecision" transform="matrix(1,0,0,1,-285,-67)" stroke-linecap="butt">
      <path d="M455.25 136.4911 L460.25 124.4911 L455.25 127.4911 L450.25 124.4911 Z" clip-path="url(#clipPath2)" stroke="none"/>
      <path fill="none" d="M455.25 202.5093 L455.25 208.484" clip-path="url(#clipPath2)"/>
      <path d="M455.25 216.484 L460.25 204.484 L455.25 207.484 L450.25 204.484 Z" clip-path="url(#clipPath2)" stroke="none"/>
      <path fill="none" d="M455.25 256.5127 L455.25 262.486" clip-path="url(#clipPath2)"/>
      <path d="M455.25 270.486 L460.25 258.486 L455.25 261.486 L450.25 258.486 Z" clip-path="url(#clipPath2)" stroke="none"/>
      <path fill="none" d="M455.25 310.5127 L455.25 316.486" clip-path="url(#clipPath2)"/>
      <path d="M455.25 324.486 L460.25 312.486 L455.25 315.486 L450.25 312.486 Z" clip-path="url(#clipPath2)" stroke="none"/>
      <path fill="none" d="M455.25 364.4988 L455.25 386.5333" clip-path="url(#clipPath2)"/>
      <path d="M455.25 394.5333 L460.25 382.5333 L455.25 385.5333 L450.25 382.5333 Z" clip-path="url(#clipPath2)" stroke="none"/>
      <path fill="none" d="M455.25 441.4985 L455.25 463.5147" clip-path="url(#clipPath2)"/>
      <path d="M455.25 471.5147 L460.25 459.5147 L455.25 462.5147 L450.25 459.5147 Z" clip-path="url(#clipPath2)" stroke="none"/>
      <text x="417.0908" xml:space="preserve" y="460.6543" font-family="sans-serif" clip-path="url(#clipPath2)" stroke="none">No</text>
      <path fill="none" d="M360.9993 495 L341 495 L341 418 L352.9993 418" clip-path="url(#clipPath2)"/>
      <path d="M360.9993 418 L348.9993 413 L351.9993 418 L348.9993 423 Z" clip-path="url(#clipPath2)" stroke="none"/>
      <text x="302.8408" xml:space="preserve" y="460.6543" font-family="sans-serif" clip-path="url(#clipPath2)" stroke="none">No</text>
      <path fill="none" d="M455.25 518.4883 L455.25 578.9898" clip-path="url(#clipPath2)"/>
      <path d="M455.25 586.9898 L460.25 574.9898 L455.25 577.9898 L450.25 574.9898 Z" clip-path="url(#clipPath2)" stroke="none"/>
      <text x="414.7676" xml:space="preserve" y="556.9043" font-family="sans-serif" clip-path="url(#clipPath2)" stroke="none">Yes</text>
      <path fill="none" d="M549.4835 418 L673.75 418 L673.75 467.0356" clip-path="url(#clipPath2)"/>
      <path d="M673.75 475.0356 L678.75 463.0356 L673.75 466.0356 L668.75 463.0356 Z" clip-path="url(#clipPath2)" stroke="none"/>
      <text x="609.8838" xml:space="preserve" y="392.1543" font-family="sans-serif" clip-path="url(#clipPath2)" stroke="none">Yes</text>
      <path fill="none" d="M673.75 514.9883 L673.75 522.9896" clip-path="url(#clipPath2)"/>
      <path d="M673.75 530.9896 L678.75 518.9896 L673.75 521.9896 L668.75 518.9896 Z" clip-path="url(#clipPath2)" stroke="none"/>
      <path fill="none" d="M673.75 570.9883 L673.75 578.9896" clip-path="url(#clipPath2)"/>
      <path d="M673.75 586.9896 L678.75 574.9896 L673.75 577.9896 L668.75 574.9896 Z" clip-path="url(#clipPath2)" stroke="none"/>
      <path fill="none" d="M579.5119 607 L545.9993 607" clip-path="url(#clipPath2)"/>
      <path d="M537.9993 607 L549.9993 612 L546.9993 607 L549.9993 602 Z" clip-path="url(#clipPath2)" stroke="none"/>
    </g>
  </g>
</svg>
