<?xml version="1.0" encoding="UTF-8"?><svg xmlns="http://www.w3.org/2000/svg" xmlns:xlink="http://www.w3.org/1999/xlink" fill-opacity="1" color-rendering="auto" color-interpolation="auto" stroke="black" text-rendering="auto" stroke-linecap="square" width="459" stroke-miterlimit="10" stroke-opacity="1" shape-rendering="auto" fill="black" stroke-dasharray="none" font-weight="normal" stroke-width="1" height="349" font-family="'Dialog'" font-style="normal" stroke-linejoin="miter" font-size="12" stroke-dashoffset="0" image-rendering="auto">
  <!--Generated by ySVG 2.5-->
  <defs id="genericDefs"/>
  <g>
    <defs id="defs1">
      <linearGradient x1="433.5" gradientUnits="userSpaceOnUse" x2="585.5" y1="474" y2="514" id="linearGradient1" spreadMethod="reflect">
        <stop stop-opacity="1" stop-color="rgb(232,238,247)" offset="0%"/>
        <stop stop-opacity="1" stop-color="rgb(183,201,227)" offset="100%"/>
      </linearGradient>
      <linearGradient x1="469.5" gradientUnits="userSpaceOnUse" x2="549.5" y1="552" y2="592" id="linearGradient2" spreadMethod="reflect">
        <stop stop-opacity="1" stop-color="rgb(232,238,247)" offset="0%"/>
        <stop stop-opacity="1" stop-color="rgb(183,201,227)" offset="100%"/>
      </linearGradient>
      <linearGradient x1="295.5" gradientUnits="userSpaceOnUse" x2="469.5" y1="630" y2="670" id="linearGradient3" spreadMethod="reflect">
        <stop stop-opacity="1" stop-color="rgb(232,238,247)" offset="0%"/>
        <stop stop-opacity="1" stop-color="rgb(183,201,227)" offset="100%"/>
      </linearGradient>
      <linearGradient x1="549.5" gradientUnits="userSpaceOnUse" x2="723.5" y1="630" y2="670" id="linearGradient4" spreadMethod="reflect">
        <stop stop-opacity="1" stop-color="rgb(232,238,247)" offset="0%"/>
        <stop stop-opacity="1" stop-color="rgb(183,201,227)" offset="100%"/>
      </linearGradient>
      <clipPath clipPathUnits="userSpaceOnUse" id="clipPath1">
        <path d="M0 0 L459 0 L459 349 L0 349 L0 0 Z"/>
      </clipPath>
      <clipPath clipPathUnits="userSpaceOnUse" id="clipPath2">
        <path d="M280 336 L739 336 L739 685 L280 685 L280 336 Z"/>
      </clipPath>
    </defs>
    <g text-rendering="optimizeQuality" stroke-miterlimit="1.45" shape-rendering="geometricPrecision" transform="matrix(1,0,0,1,-280,-336)" stroke-linecap="butt">
      <ellipse rx="70.5" fill="none" ry="20" clip-path="url(#clipPath2)" cx="509.5" cy="371"/>
      <text x="469.8379" xml:space="preserve" y="375.1543" font-family="sans-serif" clip-path="url(#clipPath2)" stroke="none">Start capture</text>
    </g>
    <g text-rendering="optimizeQuality" stroke-miterlimit="1.45" shape-rendering="geometricPrecision" transform="matrix(1,0,0,1,-280,-336)" stroke-linecap="butt">
      <path fill="none" d="M433.5 421 L585.5 421 L585.5 461 L433.5 461 Z" clip-path="url(#clipPath2)"/>
      <text x="454.4834" xml:space="preserve" y="445.1543" font-family="sans-serif" clip-path="url(#clipPath2)" stroke="none">Enable RX module</text>
    </g>
    <g fill="url(#linearGradient1)" text-rendering="optimizeQuality" shape-rendering="geometricPrecision" transform="matrix(1,0,0,1,-280,-336)" stroke="url(#linearGradient1)">
      <path d="M433.5 474 L585.5 474 L585.5 514 L433.5 514 Z" clip-path="url(#clipPath2)" stroke="none"/>
    </g>
    <g text-rendering="optimizeQuality" stroke-miterlimit="1.45" shape-rendering="geometricPrecision" transform="matrix(1,0,0,1,-280,-336)" stroke-linecap="butt">
      <path fill="none" d="M433.5 474 L585.5 474 L585.5 514 L433.5 514 Z" clip-path="url(#clipPath2)"/>
      <text x="460.7441" xml:space="preserve" y="498.1543" font-family="sans-serif" clip-path="url(#clipPath2)" stroke="none">Enable interrupt</text>
    </g>
    <g fill="url(#linearGradient2)" text-rendering="optimizeQuality" shape-rendering="geometricPrecision" transform="matrix(1,0,0,1,-280,-336)" stroke="url(#linearGradient2)">
      <path d="M509.5 552 L549.5 572 L509.5 592 L469.5 572 Z" clip-path="url(#clipPath2)" stroke="none"/>
    </g>
    <g text-rendering="optimizeQuality" stroke-miterlimit="1.45" shape-rendering="geometricPrecision" transform="matrix(1,0,0,1,-280,-336)" stroke-linecap="butt">
      <path fill="none" d="M509.5 552 L549.5 572 L509.5 592 L469.5 572 Z" clip-path="url(#clipPath2)"/>
      <text x="493.6182" xml:space="preserve" y="576.1543" font-family="sans-serif" clip-path="url(#clipPath2)" stroke="none">State</text>
    </g>
    <g fill="url(#linearGradient3)" text-rendering="optimizeQuality" shape-rendering="geometricPrecision" transform="matrix(1,0,0,1,-280,-336)" stroke="url(#linearGradient3)">
      <ellipse rx="87" ry="20" clip-path="url(#clipPath2)" cx="382.5" cy="650" stroke="none"/>
    </g>
    <g text-rendering="optimizeQuality" stroke-miterlimit="1.45" shape-rendering="geometricPrecision" transform="matrix(1,0,0,1,-280,-336)" stroke-linecap="butt">
      <ellipse rx="87" fill="none" ry="20" clip-path="url(#clipPath2)" cx="382.5" cy="650"/>
      <text x="315.3633" xml:space="preserve" y="654.1543" font-family="sans-serif" clip-path="url(#clipPath2)" stroke="none">No valid data in buffer</text>
    </g>
    <g fill="url(#linearGradient4)" text-rendering="optimizeQuality" shape-rendering="geometricPrecision" transform="matrix(1,0,0,1,-280,-336)" stroke="url(#linearGradient4)">
      <ellipse rx="87" ry="20" clip-path="url(#clipPath2)" cx="636.5" cy="650" stroke="none"/>
    </g>
    <g text-rendering="optimizeQuality" stroke-miterlimit="1.45" shape-rendering="geometricPrecision" transform="matrix(1,0,0,1,-280,-336)" stroke-linecap="butt">
      <ellipse rx="87" fill="none" ry="20" clip-path="url(#clipPath2)" cx="636.5" cy="650"/>
      <text x="578.876" xml:space="preserve" y="654.1543" font-family="sans-serif" clip-path="url(#clipPath2)" stroke="none">Valid data in buffer</text>
    </g>
    <g text-rendering="optimizeQuality" stroke-miterlimit="1.45" shape-rendering="geometricPrecision" transform="matrix(1,0,0,1,-280,-336)" stroke-linecap="butt">
      <path fill="none" d="M509.5 390.9951 L509.5 413.0273" clip-path="url(#clipPath2)"/>
    </g>
    <g text-rendering="optimizeQuality" stroke-miterlimit="1.45" shape-rendering="geometricPrecision" transform="matrix(1,0,0,1,-280,-336)" stroke-linecap="butt">
      <path d="M509.5 421.0273 L514.5 409.0273 L509.5 412.0273 L504.5 409.0273 Z" clip-path="url(#clipPath2)" stroke="none"/>
      <path fill="none" d="M509.5 461.0044 L509.5 465.99" clip-path="url(#clipPath2)"/>
      <path d="M509.5 473.99 L514.5 461.99 L509.5 464.99 L504.5 461.99 Z" clip-path="url(#clipPath2)" stroke="none"/>
      <path fill="none" d="M509.5 513.9951 L509.5 543.9758" clip-path="url(#clipPath2)"/>
      <path d="M509.5 551.9758 L514.5 539.9758 L509.5 542.9758 L504.5 539.9758 Z" clip-path="url(#clipPath2)" stroke="none"/>
      <text x="425.2129" xml:space="preserve" y="537.1543" font-family="sans-serif" clip-path="url(#clipPath2)" stroke="none">Interrupt received</text>
    </g>
  </g>
</svg>
